<?xml version="1.0" encoding="UTF-8" standalone="no"?>
<!DOCTYPE svg PUBLIC "-//W3C//DTD SVG 1.1//EN"
 "http://www.w3.org/Graphics/SVG/1.1/DTD/svg11.dtd">
<!-- Generated by graphviz version 2.43.0 (0)
 -->
<!-- Title: normalizeCallText Pages: 1 -->
<svg width="994pt" height="192pt"
 viewBox="0.00 0.00 994.00 191.50" xmlns="http://www.w3.org/2000/svg" xmlns:xlink="http://www.w3.org/1999/xlink">
<g id="graph0" class="graph" transform="scale(1 1) rotate(0) translate(4 187.5)">
<title>normalizeCallText</title>
<polygon fill="white" stroke="transparent" points="-4,4 -4,-187.5 990,-187.5 990,4 -4,4"/>
<!-- Node1 -->
<g id="node1" class="node">
<title>Node1</title>
<g id="a_node1"><a xlink:title="Normalize call text for identity generation 归一化调用文本，用于生成调用点身份">
<polygon fill="#bfbfbf" stroke="black" points="882,-95.5 882,-114.5 986,-114.5 986,-95.5 882,-95.5"/>
<text text-anchor="middle" x="934" y="-102.5" font-family="Helvetica,sans-Serif" font-size="10.00">normalizeCallText</text>
</a>
</g>
</g>
<!-- Node2 -->
<g id="node2" class="node">
<title>Node2</title>
<g id="a_node2"><a xlink:href="namespacecallsite.html#a7f3d1db0a0e705c0b7df71a802144e5f" target="_top" xlink:title="Make callsite record 构造调用点记录">
<polygon fill="white" stroke="black" points="732,-95.5 732,-114.5 846,-114.5 846,-95.5 732,-95.5"/>
<text text-anchor="middle" x="789" y="-102.5" font-family="Helvetica,sans-Serif" font-size="10.00">makeCallsiteRecord</text>
</a>
</g>
</g>
<!-- Node1&#45;&gt;Node2 -->
<g id="edge1" class="edge">
<title>Node1&#45;&gt;Node2</title>
<path fill="none" stroke="midnightblue" d="M871.61,-105C863.17,-105 854.54,-105 846.2,-105"/>
<polygon fill="midnightblue" stroke="midnightblue" points="871.78,-108.5 881.78,-105 871.78,-101.5 871.78,-108.5"/>
</g>
<!-- Node3 -->
<g id="node3" class="node">
<title>Node3</title>
<g id="a_node3"><a xlink:href="namespacepcresolveBridge.html#a512bbb00e40320ecbcbf53a312f05f09" target="_top" xlink:title="Build a CallsiteRecord lookup table from PCResolve analysis 从PCResolve分析结果构建CallsiteRecord查找表">
<polygon fill="white" stroke="black" points="371,-153 371,-183 530,-183 530,-153 371,-153"/>
<text text-anchor="start" x="379" y="-171" font-family="Helvetica,sans-Serif" font-size="10.00">pcresolveBridge.buildCallsite</text>
<text text-anchor="middle" x="450.5" y="-160" font-family="Helvetica,sans-Serif" font-size="10.00">Lookup</text>
</a>
</g>
</g>
<!-- Node2&#45;&gt;Node3 -->
<g id="edge2" class="edge">
<title>Node2&#45;&gt;Node3</title>
<path fill="none" stroke="midnightblue" d="M726.9,-116.44C671.68,-126.78 590.09,-142.05 530.04,-153.3"/>
<polygon fill="midnightblue" stroke="midnightblue" points="727.71,-119.85 736.89,-114.57 726.42,-112.97 727.71,-119.85"/>
</g>
<!-- Node7 -->
<g id="node7" class="node">
<title>Node7</title>
<g id="a_node7"><a xlink:href="namespacegetCall.html#a6671b2b1a28dcf2b92aaf39b9696fae3" target="_top" xlink:title="Extract all API calls from a given .py file 每次传进来一个.py文件，抽取所有的调用API.">
<polygon fill="white" stroke="black" points="566,-76.5 566,-95.5 696,-95.5 696,-76.5 566,-76.5"/>
<text text-anchor="middle" x="631" y="-83.5" font-family="Helvetica,sans-Serif" font-size="10.00">getCall.getCallFunction</text>
</a>
</g>
</g>
<!-- Node2&#45;&gt;Node7 -->
<g id="edge7" class="edge">
<title>Node2&#45;&gt;Node7</title>
<path fill="none" stroke="midnightblue" d="M721.55,-96.91C713.14,-95.88 704.55,-94.84 696.18,-93.82"/>
<polygon fill="midnightblue" stroke="midnightblue" points="721.33,-100.41 731.68,-98.14 722.18,-93.46 721.33,-100.41"/>
</g>
<!-- Node4 -->
<g id="node4" class="node">
<title>Node4</title>
<g id="a_node4"><a xlink:href="namespacemain.html#a4267bbc09b63fab971b487585a51ea7b" target="_top" xlink:title="Generate pkl files and perform detection and repair tasks 生成项目调用API的pkl文件以及执行检测与修复任务">
<polygon fill="white" stroke="black" points="222,-158.5 222,-177.5 314,-177.5 314,-158.5 222,-158.5"/>
<text text-anchor="middle" x="268" y="-165.5" font-family="Helvetica,sans-Serif" font-size="10.00">main.backward</text>
</a>
</g>
</g>
<!-- Node3&#45;&gt;Node4 -->
<g id="edge3" class="edge">
<title>Node3&#45;&gt;Node4</title>
<path fill="none" stroke="midnightblue" d="M360.82,-168C344.65,-168 328.42,-168 314.19,-168"/>
<polygon fill="midnightblue" stroke="midnightblue" points="360.86,-171.5 370.86,-168 360.86,-164.5 360.86,-171.5"/>
</g>
<!-- Node5 -->
<g id="node5" class="node">
<title>Node5</title>
<g id="a_node5"><a xlink:href="namespacemain.html#a54735b5e5f3ae5ec9c331c9117618719" target="_top" xlink:title="Run PCART with an isolated workspace 在隔离工作区中运行PCART.">
<polygon fill="white" stroke="black" points="105,-120.5 105,-139.5 165,-139.5 165,-120.5 105,-120.5"/>
<text text-anchor="middle" x="135" y="-127.5" font-family="Helvetica,sans-Serif" font-size="10.00">main.run</text>
</a>
</g>
</g>
<!-- Node3&#45;&gt;Node5 -->
<g id="edge6" class="edge">
<title>Node3&#45;&gt;Node5</title>
<path fill="none" stroke="midnightblue" d="M360.63,-152.63C351.98,-151.32 343.33,-150.09 335,-149 274.78,-141.14 203.9,-135.15 165.07,-132.14"/>
<polygon fill="midnightblue" stroke="midnightblue" points="360.35,-156.13 370.77,-154.2 361.42,-149.21 360.35,-156.13"/>
</g>
<!-- Node4&#45;&gt;Node5 -->
<g id="edge4" class="edge">
<title>Node4&#45;&gt;Node5</title>
<path fill="none" stroke="midnightblue" d="M224.13,-155.57C204.77,-149.95 182.39,-143.46 165.03,-138.42"/>
<polygon fill="midnightblue" stroke="midnightblue" points="223.36,-158.99 233.94,-158.41 225.31,-152.26 223.36,-158.99"/>
</g>
<!-- Node6 -->
<g id="node6" class="node">
<title>Node6</title>
<g id="a_node6"><a xlink:href="namespacemain.html#af613cea4cba4fb7de8e40896b3368945" target="_top" xlink:title="Main function of PCART PCART主函数">
<polygon fill="white" stroke="black" points="0,-120.5 0,-139.5 69,-139.5 69,-120.5 0,-120.5"/>
<text text-anchor="middle" x="34.5" y="-127.5" font-family="Helvetica,sans-Serif" font-size="10.00">main.main</text>
</a>
</g>
</g>
<!-- Node5&#45;&gt;Node6 -->
<g id="edge5" class="edge">
<title>Node5&#45;&gt;Node6</title>
<path fill="none" stroke="midnightblue" d="M94.88,-130C86.37,-130 77.44,-130 69.17,-130"/>
<polygon fill="midnightblue" stroke="midnightblue" points="94.98,-133.5 104.98,-130 94.98,-126.5 94.98,-133.5"/>
</g>
<!-- Node8 -->
<g id="node8" class="node">
<title>Node8</title>
<g id="a_node8"><a xlink:href="namespacepreprocess.html#abebae1853405a150b463cba60b0577ed" target="_top" xlink:title="Code instrumentation for all API calls within a project source file 项目源文件所有API调用代码插桩">
<polygon fill="white" stroke="black" points="389,-114.5 389,-133.5 512,-133.5 512,-114.5 389,-114.5"/>
<text text-anchor="middle" x="450.5" y="-121.5" font-family="Helvetica,sans-Serif" font-size="10.00">preprocess.addDictAll</text>
</a>
</g>
</g>
<!-- Node7&#45;&gt;Node8 -->
<g id="edge8" class="edge">
<title>Node7&#45;&gt;Node8</title>
<path fill="none" stroke="midnightblue" d="M575.13,-97.68C549.82,-103.07 520.15,-109.39 496.22,-114.48"/>
<polygon fill="midnightblue" stroke="midnightblue" points="575.9,-101.09 584.96,-95.59 574.45,-94.25 575.9,-101.09"/>
</g>
<!-- Node10 -->
<g id="node10" class="node">
<title>Node10</title>
<g id="a_node10"><a xlink:href="namespacemain.html#a052341442960b76f576383f354689bc5" target="_top" xlink:title="One process handles one file 一个进程处理一个文件">
<polygon fill="white" stroke="black" points="394,-76.5 394,-95.5 507,-95.5 507,-76.5 394,-76.5"/>
<text text-anchor="middle" x="450.5" y="-83.5" font-family="Helvetica,sans-Serif" font-size="10.00">main.backwardTask</text>
</a>
</g>
</g>
<!-- Node7&#45;&gt;Node10 -->
<g id="edge11" class="edge">
<title>Node7&#45;&gt;Node10</title>
<path fill="none" stroke="midnightblue" d="M555.79,-86C539.51,-86 522.55,-86 507.15,-86"/>
<polygon fill="midnightblue" stroke="midnightblue" points="555.81,-89.5 565.81,-86 555.81,-82.5 555.81,-89.5"/>
</g>
<!-- Node11 -->
<g id="node11" class="node">
<title>Node11</title>
<g id="a_node11"><a xlink:href="namespacepreprocess.html#a1be44b4612b83c96456034d7eef3a376" target="_top" xlink:title="Convert the ListComp and DictComp statements to variable assignment statements 将列表推导式listComp和字典推导式Di...">
<polygon fill="white" stroke="black" points="375,-38.5 375,-57.5 526,-57.5 526,-38.5 375,-38.5"/>
<text text-anchor="middle" x="450.5" y="-45.5" font-family="Helvetica,sans-Serif" font-size="10.00">preprocess.convertLocalVar</text>
</a>
</g>
</g>
<!-- Node7&#45;&gt;Node11 -->
<g id="edge12" class="edge">
<title>Node7&#45;&gt;Node11</title>
<path fill="none" stroke="midnightblue" d="M575.13,-74.32C549.82,-68.93 520.15,-62.61 496.22,-57.52"/>
<polygon fill="midnightblue" stroke="midnightblue" points="574.45,-77.75 584.96,-76.41 575.9,-70.91 574.45,-77.75"/>
</g>
<!-- Node12 -->
<g id="node12" class="node">
<title>Node12</title>
<g id="a_node12"><a xlink:href="namespacepreprocess.html#af67fd0a454bad0ef82391bf1d745b87f" target="_top" xlink:title="Save structure information of the project 保存项目的结构信息">
<polygon fill="white" stroke="black" points="380.5,-0.5 380.5,-19.5 520.5,-19.5 520.5,-0.5 380.5,-0.5"/>
<text text-anchor="middle" x="450.5" y="-7.5" font-family="Helvetica,sans-Serif" font-size="10.00">preprocess.saveStructure</text>
</a>
</g>
</g>
<!-- Node7&#45;&gt;Node12 -->
<g id="edge14" class="edge">
<title>Node7&#45;&gt;Node12</title>
<path fill="none" stroke="midnightblue" d="M607.52,-70.73C587.83,-57.98 558.06,-40.14 530,-29 520.62,-25.28 510.3,-22.14 500.32,-19.57"/>
<polygon fill="midnightblue" stroke="midnightblue" points="605.79,-73.79 616.06,-76.37 609.64,-67.94 605.79,-73.79"/>
</g>
<!-- Node9 -->
<g id="node9" class="node">
<title>Node9</title>
<g id="a_node9"><a xlink:href="namespacepreprocess.html#a2eec1d8b2c398e66364228c1ad0c6ff9" target="_top" xlink:title="Code processing 代码预处理">
<polygon fill="white" stroke="black" points="201,-60.5 201,-79.5 335,-79.5 335,-60.5 201,-60.5"/>
<text text-anchor="middle" x="268" y="-67.5" font-family="Helvetica,sans-Serif" font-size="10.00">preprocess.codeProcess</text>
</a>
</g>
</g>
<!-- Node8&#45;&gt;Node9 -->
<g id="edge9" class="edge">
<title>Node8&#45;&gt;Node9</title>
<path fill="none" stroke="midnightblue" d="M397.16,-112.05C388.39,-109.84 379.41,-107.46 371,-105 344.76,-97.34 315.27,-87.03 294.78,-79.59"/>
<polygon fill="midnightblue" stroke="midnightblue" points="396.39,-115.47 406.94,-114.46 398.07,-108.67 396.39,-115.47"/>
</g>
<!-- Node9&#45;&gt;Node5 -->
<g id="edge10" class="edge">
<title>Node9&#45;&gt;Node5</title>
<path fill="none" stroke="midnightblue" d="M237.07,-83.71C212.64,-94.9 178.75,-110.42 157.09,-120.34"/>
<polygon fill="midnightblue" stroke="midnightblue" points="238.61,-86.85 246.24,-79.51 235.69,-80.49 238.61,-86.85"/>
</g>
<!-- Node11&#45;&gt;Node9 -->
<g id="edge13" class="edge">
<title>Node11&#45;&gt;Node9</title>
<path fill="none" stroke="midnightblue" d="M364.82,-58.32C354.81,-59.54 344.71,-60.77 335.01,-61.95"/>
<polygon fill="midnightblue" stroke="midnightblue" points="365.28,-61.79 374.78,-57.11 364.43,-54.84 365.28,-61.79"/>
</g>
<!-- Node12&#45;&gt;Node9 -->
<g id="edge15" class="edge">
<title>Node12&#45;&gt;Node9</title>
<path fill="none" stroke="midnightblue" d="M395.29,-22.03C387.1,-24.17 378.79,-26.51 371,-29 342.46,-38.14 310.56,-51.49 290.16,-60.45"/>
<polygon fill="midnightblue" stroke="midnightblue" points="396.34,-25.38 405.18,-19.54 394.63,-18.59 396.34,-25.38"/>
</g>
</g>
</svg>
