<?xml version="1.0" encoding="UTF-8" standalone="no"?>
<!DOCTYPE svg PUBLIC "-//W3C//DTD SVG 1.1//EN"
 "http://www.w3.org/Graphics/SVG/1.1/DTD/svg11.dtd">
<!-- Generated by graphviz version 2.43.0 (0)
 -->
<!-- Title: resolvePythonExecutable Pages: 1 -->
<!--zoomable 142 -->
<svg id="main" version="1.1" xmlns="http://www.w3.org/2000/svg" xmlns:xlink="http://www.w3.org/1999/xlink" xml:space="preserve" onload="init(evt)">
<style type="text/css"><![CDATA[
.edge:hover path { stroke: red; }
.edge:hover polygon { stroke: red; fill: red; }
]]></style>
<script type="text/javascript"><![CDATA[
var edges = document.getElementsByTagName('g');
if (edges && edges.length) {
  for (var i=0;i<edges.length;i++) {
    if (edges[i].id.substr(0,4)=='edge') {
      edges[i].setAttribute('class','edge');
    }
  }
}
]]></script>
        <defs>
                <circle id="rim" cx="0" cy="0" r="7"/>
                <circle id="rim2" cx="0" cy="0" r="3.5"/>
                <g id="zoomPlus">
                        <use xlink:href="#rim" fill="#404040">
                                <set attributeName="fill" to="#808080" begin="zoomplus.mouseover" end="zoomplus.mouseout"/>
                        </use>
                        <path d="M-4,0h8M0,-4v8" fill="none" stroke="white" stroke-width="1.5" pointer-events="none"/>
                </g>
                <g id="zoomMin">
                        <use xlink:href="#rim" fill="#404040">
                                <set attributeName="fill" to="#808080" begin="zoomminus.mouseover" end="zoomminus.mouseout"/>
                        </use>
                        <path d="M-4,0h8" fill="none" stroke="white" stroke-width="1.5" pointer-events="none"/>
                </g>
                <g id="dirArrow">
                        <path fill="none" stroke="white" stroke-width="1.5" d="M0,-3.0v7 M-2.5,-0.5L0,-3.0L2.5,-0.5"/>
                </g>
               <g id="resetDef">
                       <use xlink:href="#rim2" fill="#404040">
                               <set attributeName="fill" to="#808080" begin="reset.mouseover" end="reset.mouseout"/>
                       </use>
               </g>
        </defs>

<script type="text/javascript">
var viewWidth = 807;
var viewHeight = 142;
var sectionId = 'dynsection-29';
</script>
<script xlink:href="svgpan.js"/>
<svg id="graph" class="graph">
<g id="viewport">
<title>resolvePythonExecutable</title>
<polygon fill="white" stroke="transparent" points="-4,4 -4,-138 803,-138 803,4 -4,4"/>
<!-- Node1 -->
<g id="node1" class="node">
<title>Node1</title>
<g id="a_node1"><a xlink:title="Resolve Python executable from a virtual environment root 从虚拟环境根目录解析 Python 解释器路径">
<polygon fill="#bfbfbf" stroke="black" points="659,-57.5 659,-76.5 799,-76.5 799,-57.5 659,-57.5"/>
<text text-anchor="middle" x="729" y="-64.5" font-family="Helvetica,sans-Serif" font-size="10.00">resolvePythonExecutable</text>
</a>
</g>
</g>
<!-- Node2 -->
<g id="node2" class="node">
<title>Node2</title>
<g id="a_node2"><a xlink:href="namespacechangeAnalyze.html#afb56fcc8060a6914ae0aa7b73d837a03" target="_top" xlink:title="Add values stored by pkl file for API parameters 为API参数添加保存至pkl文件中的值">
<polygon fill="white" stroke="black" points="149,-114.5 149,-133.5 319,-133.5 319,-114.5 149,-114.5"/>
<text text-anchor="middle" x="234" y="-121.5" font-family="Helvetica,sans-Serif" font-size="10.00">changeAnalyze.addValueForAPI</text>
</a>
</g>
</g>
<!-- Node1&#45;&gt;Node2 -->
<g id="edge1" class="edge">
<title>Node1&#45;&gt;Node2</title>
<path fill="none" stroke="midnightblue" d="M697.75,-80.68C677.13,-89.31 648.97,-99.79 623,-105 519.85,-125.7 398.33,-128.23 319.14,-127.05"/>
<polygon fill="midnightblue" stroke="midnightblue" points="699.4,-83.78 707.22,-76.62 696.65,-77.34 699.4,-83.78"/>
</g>
<!-- Node4 -->
<g id="node4" class="node">
<title>Node4</title>
<g id="a_node4"><a xlink:href="namespacetool.html#a06834e8d522d907efbdb98ce689b85db" target="_top" xlink:title="Build subprocess argv for project run command 为被测项目运行命令构造subprocess argv.">
<polygon fill="white" stroke="black" points="508.5,-0.5 508.5,-19.5 618.5,-19.5 618.5,-0.5 508.5,-0.5"/>
<text text-anchor="middle" x="563.5" y="-7.5" font-family="Helvetica,sans-Serif" font-size="10.00">buildRunCommand</text>
</a>
</g>
</g>
<!-- Node1&#45;&gt;Node4 -->
<g id="edge3" class="edge">
<title>Node1&#45;&gt;Node4</title>
<path fill="none" stroke="midnightblue" d="M690.92,-54.07C660.83,-43.58 619.1,-29.04 591.96,-19.57"/>
<polygon fill="midnightblue" stroke="midnightblue" points="690.04,-57.47 700.63,-57.46 692.34,-50.86 690.04,-57.47"/>
</g>
<!-- Node8 -->
<g id="node8" class="node">
<title>Node8</title>
<g id="a_node8"><a xlink:href="namespacemap.html#ad42b1c51153bfcc30c38bf31ca669197" target="_top" xlink:title="Dynamic mapping of API signatures API签名动态匹配">
<polygon fill="white" stroke="black" points="355,-38.5 355,-57.5 468,-57.5 468,-38.5 355,-38.5"/>
<text text-anchor="middle" x="411.5" y="-45.5" font-family="Helvetica,sans-Serif" font-size="10.00">map.dynamicMatch</text>
</a>
</g>
</g>
<!-- Node1&#45;&gt;Node8 -->
<g id="edge10" class="edge">
<title>Node1&#45;&gt;Node8</title>
<path fill="none" stroke="midnightblue" d="M648.48,-62.21C592.23,-58.82 518.21,-54.37 468.19,-51.35"/>
<polygon fill="midnightblue" stroke="midnightblue" points="648.57,-65.72 658.76,-62.83 648.99,-58.74 648.57,-65.72"/>
</g>
<!-- Node10 -->
<g id="node10" class="node">
<title>Node10</title>
<g id="a_node10"><a xlink:href="namespacerepair.html#a9bf5e162d36d1dcde8ec91f611575276" target="_top" xlink:title="Dynamic validation 动态验证">
<polygon fill="white" stroke="black" points="504,-76.5 504,-95.5 623,-95.5 623,-76.5 504,-76.5"/>
<text text-anchor="middle" x="563.5" y="-83.5" font-family="Helvetica,sans-Serif" font-size="10.00">repair.validateByRun</text>
</a>
</g>
</g>
<!-- Node1&#45;&gt;Node10 -->
<g id="edge11" class="edge">
<title>Node1&#45;&gt;Node10</title>
<path fill="none" stroke="midnightblue" d="M648.61,-76.23C640.02,-77.22 631.39,-78.23 623.11,-79.19"/>
<polygon fill="midnightblue" stroke="midnightblue" points="649.13,-79.69 658.66,-75.06 648.32,-72.74 649.13,-79.69"/>
</g>
<!-- Node3 -->
<g id="node3" class="node">
<title>Node3</title>
<g id="a_node3"><a xlink:href="namespacemain.html#a052341442960b76f576383f354689bc5" target="_top" xlink:title="One process handles one file 一个进程处理一个文件">
<polygon fill="white" stroke="black" points="0,-76.5 0,-95.5 113,-95.5 113,-76.5 0,-76.5"/>
<text text-anchor="middle" x="56.5" y="-83.5" font-family="Helvetica,sans-Serif" font-size="10.00">main.backwardTask</text>
</a>
</g>
</g>
<!-- Node2&#45;&gt;Node3 -->
<g id="edge2" class="edge">
<title>Node2&#45;&gt;Node3</title>
<path fill="none" stroke="midnightblue" d="M178.72,-112.25C153.91,-106.87 124.89,-100.59 101.47,-95.52"/>
<polygon fill="midnightblue" stroke="midnightblue" points="178.2,-115.72 188.71,-114.41 179.68,-108.87 178.2,-115.72"/>
</g>
<!-- Node5 -->
<g id="node5" class="node">
<title>Node5</title>
<g id="a_node5"><a xlink:href="namespacemain.html#a4267bbc09b63fab971b487585a51ea7b" target="_top" xlink:title="Generate pkl files and perform detection and repair tasks 生成项目调用API的pkl文件以及执行检测与修复任务">
<polygon fill="white" stroke="black" points="365.5,-0.5 365.5,-19.5 457.5,-19.5 457.5,-0.5 365.5,-0.5"/>
<text text-anchor="middle" x="411.5" y="-7.5" font-family="Helvetica,sans-Serif" font-size="10.00">main.backward</text>
</a>
</g>
</g>
<!-- Node4&#45;&gt;Node5 -->
<g id="edge4" class="edge">
<title>Node4&#45;&gt;Node5</title>
<path fill="none" stroke="midnightblue" d="M498.07,-10C484.47,-10 470.39,-10 457.68,-10"/>
<polygon fill="midnightblue" stroke="midnightblue" points="498.35,-13.5 508.35,-10 498.35,-6.5 498.35,-13.5"/>
</g>
<!-- Node4&#45;&gt;Node8 -->
<g id="edge7" class="edge">
<title>Node4&#45;&gt;Node8</title>
<path fill="none" stroke="midnightblue" d="M514.69,-22.11C493.8,-27.4 469.65,-33.52 450.08,-38.48"/>
<polygon fill="midnightblue" stroke="midnightblue" points="515.81,-25.44 524.65,-19.59 514.1,-18.65 515.81,-25.44"/>
</g>
<!-- Node6 -->
<g id="node6" class="node">
<title>Node6</title>
<g id="a_node6"><a xlink:href="namespacemain.html#a2dd38981b6166face1603927a8486760" target="_top" xlink:title="Run PCART with an isolated workspace 在隔离工作区中运行PCART.">
<polygon fill="white" stroke="black" points="204,-0.5 204,-19.5 264,-19.5 264,-0.5 204,-0.5"/>
<text text-anchor="middle" x="234" y="-7.5" font-family="Helvetica,sans-Serif" font-size="10.00">main.run</text>
</a>
</g>
</g>
<!-- Node5&#45;&gt;Node6 -->
<g id="edge5" class="edge">
<title>Node5&#45;&gt;Node6</title>
<path fill="none" stroke="midnightblue" d="M354.91,-10C324.76,-10 288.72,-10 264.08,-10"/>
<polygon fill="midnightblue" stroke="midnightblue" points="355.3,-13.5 365.3,-10 355.3,-6.5 355.3,-13.5"/>
</g>
<!-- Node7 -->
<g id="node7" class="node">
<title>Node7</title>
<g id="a_node7"><a xlink:href="namespacemain.html#af613cea4cba4fb7de8e40896b3368945" target="_top" xlink:title="Main function of PCART PCART主函数">
<polygon fill="white" stroke="black" points="22,-0.5 22,-19.5 91,-19.5 91,-0.5 22,-0.5"/>
<text text-anchor="middle" x="56.5" y="-7.5" font-family="Helvetica,sans-Serif" font-size="10.00">main.main</text>
</a>
</g>
</g>
<!-- Node6&#45;&gt;Node7 -->
<g id="edge6" class="edge">
<title>Node6&#45;&gt;Node7</title>
<path fill="none" stroke="midnightblue" d="M193.25,-10C162.47,-10 120.31,-10 91.17,-10"/>
<polygon fill="midnightblue" stroke="midnightblue" points="193.63,-13.5 203.63,-10 193.63,-6.5 193.63,-13.5"/>
</g>
<!-- Node9 -->
<g id="node9" class="node">
<title>Node9</title>
<g id="a_node9"><a xlink:href="namespacemap.html#a78308f65da57a1b78ac061bddb981715" target="_top" xlink:title="Construct the mapping between the invoked API and the lib API to obtain its signature 建立invoked API与 ...">
<polygon fill="white" stroke="black" points="194.5,-38.5 194.5,-57.5 273.5,-57.5 273.5,-38.5 194.5,-38.5"/>
<text text-anchor="middle" x="234" y="-45.5" font-family="Helvetica,sans-Serif" font-size="10.00">map.mapAPI</text>
</a>
</g>
</g>
<!-- Node8&#45;&gt;Node9 -->
<g id="edge8" class="edge">
<title>Node8&#45;&gt;Node9</title>
<path fill="none" stroke="midnightblue" d="M344.84,-48C320.8,-48 294.41,-48 273.51,-48"/>
<polygon fill="midnightblue" stroke="midnightblue" points="344.97,-51.5 354.97,-48 344.97,-44.5 344.97,-51.5"/>
</g>
<!-- Node9&#45;&gt;Node3 -->
<g id="edge9" class="edge">
<title>Node9&#45;&gt;Node3</title>
<path fill="none" stroke="midnightblue" d="M184.47,-58.51C158.5,-64.13 126.74,-71.01 101.49,-76.48"/>
<polygon fill="midnightblue" stroke="midnightblue" points="185.45,-61.88 194.49,-56.34 183.97,-55.03 185.45,-61.88"/>
</g>
<!-- Node11 -->
<g id="node11" class="node">
<title>Node11</title>
<g id="a_node11"><a xlink:href="namespacerepair.html#a4474fce39da06e080d7eab0050a1e987" target="_top" xlink:title="Task of repairing parameter compatibility issues 参数兼容性问题修复任务">
<polygon fill="white" stroke="black" points="362.5,-76.5 362.5,-95.5 460.5,-95.5 460.5,-76.5 362.5,-76.5"/>
<text text-anchor="middle" x="411.5" y="-83.5" font-family="Helvetica,sans-Serif" font-size="10.00">repair.repairTask</text>
</a>
</g>
</g>
<!-- Node10&#45;&gt;Node11 -->
<g id="edge12" class="edge">
<title>Node10&#45;&gt;Node11</title>
<path fill="none" stroke="midnightblue" d="M493.5,-86C482.36,-86 471.05,-86 460.55,-86"/>
<polygon fill="midnightblue" stroke="midnightblue" points="493.65,-89.5 503.65,-86 493.65,-82.5 493.65,-89.5"/>
</g>
<!-- Node11&#45;&gt;Node3 -->
<g id="edge13" class="edge">
<title>Node11&#45;&gt;Node3</title>
<path fill="none" stroke="midnightblue" d="M351.87,-86C285.5,-86 178.19,-86 113.1,-86"/>
<polygon fill="midnightblue" stroke="midnightblue" points="352.16,-89.5 362.16,-86 352.16,-82.5 352.16,-89.5"/>
</g>
</g>
</svg>
        <g id="navigator" transform="translate(0 0)" fill="#404254">
                <rect fill="#f2f5e9" fill-opacity="0.5" stroke="#606060" stroke-width=".5" x="0" y="0" width="60" height="60"/>
                <use id="zoomplus" xlink:href="#zoomPlus" x="17" y="9" onmousedown="handleZoom(evt,'in')"/>
                <use id="zoomminus" xlink:href="#zoomMin" x="42" y="9" onmousedown="handleZoom(evt,'out')"/>
                <use id="reset" xlink:href="#resetDef" x="30" y="36" onmousedown="handleReset()"/>
                <g id="arrowUp" xlink:href="#dirArrow" transform="translate(30 24)" onmousedown="handlePan(0,-1)">
                  <use xlink:href="#rim" fill="#404040">
                        <set attributeName="fill" to="#808080" begin="arrowUp.mouseover" end="arrowUp.mouseout"/>
                  </use>
                  <path fill="none" stroke="white" stroke-width="1.5" d="M0,-3.0v7 M-2.5,-0.5L0,-3.0L2.5,-0.5"/>
                </g>
                <g id="arrowRight" xlink:href="#dirArrow" transform="rotate(90) translate(36 -43)" onmousedown="handlePan(1,0)">
                  <use xlink:href="#rim" fill="#404040">
                        <set attributeName="fill" to="#808080" begin="arrowRight.mouseover" end="arrowRight.mouseout"/>
                  </use>
                  <path fill="none" stroke="white" stroke-width="1.5" d="M0,-3.0v7 M-2.5,-0.5L0,-3.0L2.5,-0.5"/>
                </g>
                <g id="arrowDown" xlink:href="#dirArrow" transform="rotate(180) translate(-30 -48)" onmousedown="handlePan(0,1)">
                  <use xlink:href="#rim" fill="#404040">
                        <set attributeName="fill" to="#808080" begin="arrowDown.mouseover" end="arrowDown.mouseout"/>
                  </use>
                  <path fill="none" stroke="white" stroke-width="1.5" d="M0,-3.0v7 M-2.5,-0.5L0,-3.0L2.5,-0.5"/>
                </g>
                <g id="arrowLeft" xlink:href="#dirArrow" transform="rotate(270) translate(-36 17)" onmousedown="handlePan(-1,0)">
                  <use xlink:href="#rim" fill="#404040">
                        <set attributeName="fill" to="#808080" begin="arrowLeft.mouseover" end="arrowLeft.mouseout"/>
                  </use>
                  <path fill="none" stroke="white" stroke-width="1.5" d="M0,-3.0v7 M-2.5,-0.5L0,-3.0L2.5,-0.5"/>
                </g>
        </g>
        <svg viewBox="0 0 15 15" width="100%" height="30px" preserveAspectRatio="xMaxYMin meet">
         <g id="arrow_out" transform="scale(0.3 0.3)">
          <a xlink:href="namespacetool_acddd4e80b12bc317097d9b6da7afaa48_icgraph_org.svg" target="_base">
           <rect id="button" ry="5" rx="5" y="6" x="6" height="38" width="38"
                fill="#f2f5e9" fill-opacity="0.5" stroke="#606060" stroke-width="1.0"/>
           <path id="arrow"
             d="M 11.500037,31.436501 C 11.940474,20.09759 22.043105,11.32322 32.158766,21.979434 L 37.068811,17.246167 C 37.068811,17.246167 37.088388,32 37.088388,32 L 22.160133,31.978069 C 22.160133,31.978069 26.997745,27.140456 26.997745,27.140456 C 18.528582,18.264221 13.291696,25.230495 11.500037,31.436501 z"
             style="fill:#404040;"/>
          </a>
         </g>
        </svg>
</svg>
