<?xml version="1.0" encoding="UTF-8" standalone="no"?>
<!DOCTYPE svg PUBLIC "-//W3C//DTD SVG 1.1//EN"
 "http://www.w3.org/Graphics/SVG/1.1/DTD/svg11.dtd">
<!-- Generated by graphviz version 2.43.0 (0)
 -->
<!-- Title: getFileName Pages: 1 -->
<svg width="810pt" height="161pt"
 viewBox="0.00 0.00 810.00 161.00" xmlns="http://www.w3.org/2000/svg" xmlns:xlink="http://www.w3.org/1999/xlink">
<g id="graph0" class="graph" transform="scale(1 1) rotate(0) translate(4 157)">
<title>getFileName</title>
<polygon fill="white" stroke="transparent" points="-4,4 -4,-157 806,-157 806,4 -4,4"/>
<!-- Node1 -->
<g id="node1" class="node">
<title>Node1</title>
<g id="a_node1"><a xlink:title="Normalize file name 给文件取名字">
<polygon fill="#bfbfbf" stroke="black" points="723,-76.5 723,-95.5 802,-95.5 802,-76.5 723,-76.5"/>
<text text-anchor="middle" x="762.5" y="-83.5" font-family="Helvetica,sans-Serif" font-size="10.00">getFileName</text>
</a>
</g>
</g>
<!-- Node2 -->
<g id="node2" class="node">
<title>Node2</title>
<g id="a_node2"><a xlink:href="namespacechangeAnalyze.html#afb56fcc8060a6914ae0aa7b73d837a03" target="_top" xlink:title="Add values stored by pkl file for API parameters 为API参数添加保存至pkl文件中的值">
<polygon fill="white" stroke="black" points="149,-133.5 149,-152.5 319,-152.5 319,-133.5 149,-133.5"/>
<text text-anchor="middle" x="234" y="-140.5" font-family="Helvetica,sans-Serif" font-size="10.00">changeAnalyze.addValueForAPI</text>
</a>
</g>
</g>
<!-- Node1&#45;&gt;Node2 -->
<g id="edge1" class="edge">
<title>Node1&#45;&gt;Node2</title>
<path fill="none" stroke="midnightblue" d="M737.47,-100.69C723.32,-108.54 704.76,-117.5 687,-122 561.93,-153.71 411.28,-153.37 319.36,-149.06"/>
<polygon fill="midnightblue" stroke="midnightblue" points="739.58,-103.52 746.5,-95.5 736.09,-97.45 739.58,-103.52"/>
</g>
<!-- Node4 -->
<g id="node4" class="node">
<title>Node4</title>
<g id="a_node4"><a xlink:href="namespacemap.html#ad42b1c51153bfcc30c38bf31ca669197" target="_top" xlink:title="Dynamic mapping of API signatures API签名动态匹配">
<polygon fill="white" stroke="black" points="355,-76.5 355,-95.5 468,-95.5 468,-76.5 355,-76.5"/>
<text text-anchor="middle" x="411.5" y="-83.5" font-family="Helvetica,sans-Serif" font-size="10.00">map.dynamicMatch</text>
</a>
</g>
</g>
<!-- Node1&#45;&gt;Node4 -->
<g id="edge3" class="edge">
<title>Node1&#45;&gt;Node4</title>
<path fill="none" stroke="midnightblue" d="M721.55,-98.14C710.46,-100.97 698.36,-103.57 687,-105 606.3,-115.13 584.91,-113.31 504,-105 485.92,-103.14 466.15,-99.27 449.63,-95.51"/>
<polygon fill="midnightblue" stroke="midnightblue" points="722.63,-101.47 731.38,-95.5 720.82,-94.71 722.63,-101.47"/>
</g>
<!-- Node6 -->
<g id="node6" class="node">
<title>Node6</title>
<g id="a_node6"><a xlink:href="namespacemap.html#a48baa0d5e1698250bfa361d952ae7637" target="_top" xlink:title="Check whether a callsite candidate manifest records pkl save failure 检查调用点候选清单是否记录了pkl保存失败">
<polygon fill="white" stroke="black" points="518.5,-76.5 518.5,-95.5 672.5,-95.5 672.5,-76.5 518.5,-76.5"/>
<text text-anchor="middle" x="595.5" y="-83.5" font-family="Helvetica,sans-Serif" font-size="10.00">map.hasSaveFailedManifest</text>
</a>
</g>
</g>
<!-- Node1&#45;&gt;Node6 -->
<g id="edge6" class="edge">
<title>Node1&#45;&gt;Node6</title>
<path fill="none" stroke="midnightblue" d="M712.58,-86C700,-86 686.17,-86 672.57,-86"/>
<polygon fill="midnightblue" stroke="midnightblue" points="712.81,-89.5 722.81,-86 712.81,-82.5 712.81,-89.5"/>
</g>
<!-- Node7 -->
<g id="node7" class="node">
<title>Node7</title>
<g id="a_node7"><a xlink:href="namespacemap.html#a4dfc27a9ef88266fabc973323ea01327" target="_top" xlink:title="Save dynamic match result snapshot 保存动态匹配结果快照">
<polygon fill="white" stroke="black" points="504,-38.5 504,-57.5 687,-57.5 687,-38.5 504,-38.5"/>
<text text-anchor="middle" x="595.5" y="-45.5" font-family="Helvetica,sans-Serif" font-size="10.00">map.saveDynamicMatchSnapshot</text>
</a>
</g>
</g>
<!-- Node1&#45;&gt;Node7 -->
<g id="edge8" class="edge">
<title>Node1&#45;&gt;Node7</title>
<path fill="none" stroke="midnightblue" d="M715.28,-73.88C705.93,-71.53 696.17,-69.13 687,-67 673.08,-63.77 657.9,-60.48 644.02,-57.58"/>
<polygon fill="midnightblue" stroke="midnightblue" points="714.64,-77.34 725.2,-76.41 716.37,-70.55 714.64,-77.34"/>
</g>
<!-- Node8 -->
<g id="node8" class="node">
<title>Node8</title>
<g id="a_node8"><a xlink:href="namespacerepair.html#a9bf5e162d36d1dcde8ec91f611575276" target="_top" xlink:title="Dynamic validation 动态验证">
<polygon fill="white" stroke="black" points="536,-0.5 536,-19.5 655,-19.5 655,-0.5 536,-0.5"/>
<text text-anchor="middle" x="595.5" y="-7.5" font-family="Helvetica,sans-Serif" font-size="10.00">repair.validateByRun</text>
</a>
</g>
</g>
<!-- Node1&#45;&gt;Node8 -->
<g id="edge10" class="edge">
<title>Node1&#45;&gt;Node8</title>
<path fill="none" stroke="midnightblue" d="M744.35,-69.26C730.13,-56.32 708.78,-38.99 687,-29 677.08,-24.45 666.04,-20.97 655.18,-18.33"/>
<polygon fill="midnightblue" stroke="midnightblue" points="742.16,-72 751.85,-76.28 746.95,-66.89 742.16,-72"/>
</g>
<!-- Node3 -->
<g id="node3" class="node">
<title>Node3</title>
<g id="a_node3"><a xlink:href="namespacemain.html#a052341442960b76f576383f354689bc5" target="_top" xlink:title="One process handles one file 一个进程处理一个文件">
<polygon fill="white" stroke="black" points="0,-76.5 0,-95.5 113,-95.5 113,-76.5 0,-76.5"/>
<text text-anchor="middle" x="56.5" y="-83.5" font-family="Helvetica,sans-Serif" font-size="10.00">main.backwardTask</text>
</a>
</g>
</g>
<!-- Node2&#45;&gt;Node3 -->
<g id="edge2" class="edge">
<title>Node2&#45;&gt;Node3</title>
<path fill="none" stroke="midnightblue" d="M194.03,-130.34C161.68,-119.84 116.36,-105.12 86.97,-95.57"/>
<polygon fill="midnightblue" stroke="midnightblue" points="193.03,-133.7 203.63,-133.46 195.2,-127.04 193.03,-133.7"/>
</g>
<!-- Node5 -->
<g id="node5" class="node">
<title>Node5</title>
<g id="a_node5"><a xlink:href="namespacemap.html#a78308f65da57a1b78ac061bddb981715" target="_top" xlink:title="Construct the mapping between the invoked API and the lib API to obtain its signature 建立invoked API与 ...">
<polygon fill="white" stroke="black" points="194.5,-76.5 194.5,-95.5 273.5,-95.5 273.5,-76.5 194.5,-76.5"/>
<text text-anchor="middle" x="234" y="-83.5" font-family="Helvetica,sans-Serif" font-size="10.00">map.mapAPI</text>
</a>
</g>
</g>
<!-- Node4&#45;&gt;Node5 -->
<g id="edge4" class="edge">
<title>Node4&#45;&gt;Node5</title>
<path fill="none" stroke="midnightblue" d="M344.84,-86C320.8,-86 294.41,-86 273.51,-86"/>
<polygon fill="midnightblue" stroke="midnightblue" points="344.97,-89.5 354.97,-86 344.97,-82.5 344.97,-89.5"/>
</g>
<!-- Node5&#45;&gt;Node3 -->
<g id="edge5" class="edge">
<title>Node5&#45;&gt;Node3</title>
<path fill="none" stroke="midnightblue" d="M184.35,-86C162.29,-86 136.09,-86 113.24,-86"/>
<polygon fill="midnightblue" stroke="midnightblue" points="184.49,-89.5 194.49,-86 184.49,-82.5 184.49,-89.5"/>
</g>
<!-- Node6&#45;&gt;Node4 -->
<g id="edge7" class="edge">
<title>Node6&#45;&gt;Node4</title>
<path fill="none" stroke="midnightblue" d="M508.03,-86C494.46,-86 480.75,-86 468.11,-86"/>
<polygon fill="midnightblue" stroke="midnightblue" points="508.37,-89.5 518.37,-86 508.37,-82.5 508.37,-89.5"/>
</g>
<!-- Node7&#45;&gt;Node4 -->
<g id="edge9" class="edge">
<title>Node7&#45;&gt;Node4</title>
<path fill="none" stroke="midnightblue" d="M538.55,-59.68C512.74,-65.07 482.49,-71.39 458.1,-76.48"/>
<polygon fill="midnightblue" stroke="midnightblue" points="539.5,-63.06 548.57,-57.59 538.07,-56.21 539.5,-63.06"/>
</g>
<!-- Node9 -->
<g id="node9" class="node">
<title>Node9</title>
<g id="a_node9"><a xlink:href="namespacerepair.html#a4474fce39da06e080d7eab0050a1e987" target="_top" xlink:title="Task of repairing parameter compatibility issues 参数兼容性问题修复任务">
<polygon fill="white" stroke="black" points="362.5,-19.5 362.5,-38.5 460.5,-38.5 460.5,-19.5 362.5,-19.5"/>
<text text-anchor="middle" x="411.5" y="-26.5" font-family="Helvetica,sans-Serif" font-size="10.00">repair.repairTask</text>
</a>
</g>
</g>
<!-- Node8&#45;&gt;Node9 -->
<g id="edge11" class="edge">
<title>Node8&#45;&gt;Node9</title>
<path fill="none" stroke="midnightblue" d="M525.76,-17.18C504.07,-19.44 480.57,-21.89 460.63,-23.97"/>
<polygon fill="midnightblue" stroke="midnightblue" points="526.33,-20.64 535.91,-16.12 525.6,-13.67 526.33,-20.64"/>
</g>
<!-- Node9&#45;&gt;Node3 -->
<g id="edge12" class="edge">
<title>Node9&#45;&gt;Node3</title>
<path fill="none" stroke="midnightblue" d="M352.25,-36.44C299.15,-43.46 218.61,-54.73 149,-67 133.18,-69.79 115.91,-73.26 100.68,-76.47"/>
<polygon fill="midnightblue" stroke="midnightblue" points="352.71,-39.91 362.16,-35.13 351.79,-32.97 352.71,-39.91"/>
</g>
</g>
</svg>
