<?xml version="1.0" encoding="UTF-8" standalone="no"?>
<!DOCTYPE svg PUBLIC "-//W3C//DTD SVG 1.1//EN"
 "http://www.w3.org/Graphics/SVG/1.1/DTD/svg11.dtd">
<!-- Generated by graphviz version 2.43.0 (0)
 -->
<!-- Title: loadLib Pages: 1 -->
<svg width="458pt" height="28pt"
 viewBox="0.00 0.00 458.00 28.00" xmlns="http://www.w3.org/2000/svg" xmlns:xlink="http://www.w3.org/1999/xlink">
<g id="graph0" class="graph" transform="scale(1 1) rotate(0) translate(4 24)">
<title>loadLib</title>
<polygon fill="white" stroke="transparent" points="-4,4 -4,-24 454,-24 454,4 -4,4"/>
<!-- Node1 -->
<g id="node1" class="node">
<title>Node1</title>
<g id="a_node1"><a xlink:title="Load the extracted definitions of lib APIs for static signature mapping 把之前抽取出来的库API加载到字典中，在项目API与库AP...">
<polygon fill="#bfbfbf" stroke="black" points="398,-0.5 398,-19.5 450,-19.5 450,-0.5 398,-0.5"/>
<text text-anchor="middle" x="424" y="-7.5" font-family="Helvetica,sans-Serif" font-size="10.00">loadLib</text>
</a>
</g>
</g>
<!-- Node2 -->
<g id="node2" class="node">
<title>Node2</title>
<g id="a_node2"><a xlink:href="namespacemap.html#ad057ce6744be1ed77c3482ef8872eba1" target="_top" xlink:title="Static mapping of API signatures API签名静态匹配">
<polygon fill="white" stroke="black" points="264,-0.5 264,-19.5 362,-19.5 362,-0.5 264,-0.5"/>
<text text-anchor="middle" x="313" y="-7.5" font-family="Helvetica,sans-Serif" font-size="10.00">map.fuzzymatch</text>
</a>
</g>
</g>
<!-- Node1&#45;&gt;Node2 -->
<g id="edge1" class="edge">
<title>Node1&#45;&gt;Node2</title>
<path fill="none" stroke="midnightblue" d="M387.97,-10C379.72,-10 370.78,-10 362.06,-10"/>
<polygon fill="midnightblue" stroke="midnightblue" points="387.99,-13.5 397.99,-10 387.99,-6.5 387.99,-13.5"/>
</g>
<!-- Node3 -->
<g id="node3" class="node">
<title>Node3</title>
<g id="a_node3"><a xlink:href="namespacemap.html#a78308f65da57a1b78ac061bddb981715" target="_top" xlink:title="Construct the mapping between the invoked API and the lib API to obtain its signature 建立invoked API与 ...">
<polygon fill="white" stroke="black" points="149,-0.5 149,-19.5 228,-19.5 228,-0.5 149,-0.5"/>
<text text-anchor="middle" x="188.5" y="-7.5" font-family="Helvetica,sans-Serif" font-size="10.00">map.mapAPI</text>
</a>
</g>
</g>
<!-- Node2&#45;&gt;Node3 -->
<g id="edge2" class="edge">
<title>Node2&#45;&gt;Node3</title>
<path fill="none" stroke="midnightblue" d="M253.86,-10C245.21,-10 236.48,-10 228.35,-10"/>
<polygon fill="midnightblue" stroke="midnightblue" points="253.94,-13.5 263.94,-10 253.94,-6.5 253.94,-13.5"/>
</g>
<!-- Node4 -->
<g id="node4" class="node">
<title>Node4</title>
<g id="a_node4"><a xlink:href="namespacemain.html#a052341442960b76f576383f354689bc5" target="_top" xlink:title="One process handles one file 一个进程处理一个文件">
<polygon fill="white" stroke="black" points="0,-0.5 0,-19.5 113,-19.5 113,-0.5 0,-0.5"/>
<text text-anchor="middle" x="56.5" y="-7.5" font-family="Helvetica,sans-Serif" font-size="10.00">main.backwardTask</text>
</a>
</g>
</g>
<!-- Node3&#45;&gt;Node4 -->
<g id="edge3" class="edge">
<title>Node3&#45;&gt;Node4</title>
<path fill="none" stroke="midnightblue" d="M138.84,-10C130.44,-10 121.65,-10 113.08,-10"/>
<polygon fill="midnightblue" stroke="midnightblue" points="138.85,-13.5 148.85,-10 138.85,-6.5 138.85,-13.5"/>
</g>
</g>
</svg>
