<?xml version="1.0" encoding="UTF-8" standalone="no"?>
<!DOCTYPE svg PUBLIC "-//W3C//DTD SVG 1.1//EN"
 "http://www.w3.org/Graphics/SVG/1.1/DTD/svg11.dtd">
<!-- Generated by graphviz version 2.43.0 (0)
 -->
<!-- Title: fuzzymatch Pages: 1 -->
<svg width="429pt" height="78pt"
 viewBox="0.00 0.00 429.00 77.50" xmlns="http://www.w3.org/2000/svg" xmlns:xlink="http://www.w3.org/1999/xlink">
<g id="graph0" class="graph" transform="scale(1 1) rotate(0) translate(4 73.5)">
<title>fuzzymatch</title>
<polygon fill="white" stroke="transparent" points="-4,4 -4,-73.5 425,-73.5 425,4 -4,4"/>
<!-- Node1 -->
<g id="node1" class="node">
<title>Node1</title>
<g id="a_node1"><a xlink:title="Static mapping of API signatures API签名静态匹配">
<polygon fill="#bfbfbf" stroke="black" points="347,-22.5 347,-41.5 421,-41.5 421,-22.5 347,-22.5"/>
<text text-anchor="middle" x="384" y="-29.5" font-family="Helvetica,sans-Serif" font-size="10.00">fuzzymatch</text>
</a>
</g>
</g>
<!-- Node2 -->
<g id="node2" class="node">
<title>Node2</title>
<g id="a_node2"><a xlink:href="namespacechangeAnalyze.html#a11ec6da1d7db3c88dbd23d6a6c5a6dae" target="_top" xlink:title="Analyze compatibility after selecting comparable matching results 选择可比较的匹配结果，再分析版本间兼容性">
<polygon fill="white" stroke="black" points="149,-39 149,-69 311,-69 311,-39 149,-39"/>
<text text-anchor="start" x="157" y="-57" font-family="Helvetica,sans-Serif" font-size="10.00">changeAnalyze.analyzeMatch</text>
<text text-anchor="middle" x="230" y="-46" font-family="Helvetica,sans-Serif" font-size="10.00">Compatibility</text>
</a>
</g>
</g>
<!-- Node1&#45;&gt;Node2 -->
<g id="edge1" class="edge">
<title>Node1&#45;&gt;Node2</title>
<path fill="none" stroke="midnightblue" d="M336.91,-38.67C328.71,-39.86 319.95,-41.13 311.11,-42.41"/>
<polygon fill="midnightblue" stroke="midnightblue" points="337.58,-42.11 346.98,-37.21 336.58,-35.18 337.58,-42.11"/>
</g>
<!-- Node4 -->
<g id="node4" class="node">
<title>Node4</title>
<g id="a_node4"><a xlink:href="namespacemap.html#a78308f65da57a1b78ac061bddb981715" target="_top" xlink:title="Construct the mapping between the invoked API and the lib API to obtain its signature 建立invoked API与 ...">
<polygon fill="white" stroke="black" points="203,-0.5 203,-19.5 257,-19.5 257,-0.5 203,-0.5"/>
<text text-anchor="middle" x="230" y="-7.5" font-family="Helvetica,sans-Serif" font-size="10.00">mapAPI</text>
</a>
</g>
</g>
<!-- Node1&#45;&gt;Node4 -->
<g id="edge3" class="edge">
<title>Node1&#45;&gt;Node4</title>
<path fill="none" stroke="midnightblue" d="M336.92,-25.33C310.83,-21.55 279.13,-16.97 257.25,-13.8"/>
<polygon fill="midnightblue" stroke="midnightblue" points="336.58,-28.82 346.98,-26.79 337.58,-21.89 336.58,-28.82"/>
</g>
<!-- Node3 -->
<g id="node3" class="node">
<title>Node3</title>
<g id="a_node3"><a xlink:href="namespacemain.html#a052341442960b76f576383f354689bc5" target="_top" xlink:title="One process handles one file 一个进程处理一个文件">
<polygon fill="white" stroke="black" points="0,-22.5 0,-41.5 113,-41.5 113,-22.5 0,-22.5"/>
<text text-anchor="middle" x="56.5" y="-29.5" font-family="Helvetica,sans-Serif" font-size="10.00">main.backwardTask</text>
</a>
</g>
</g>
<!-- Node2&#45;&gt;Node3 -->
<g id="edge2" class="edge">
<title>Node2&#45;&gt;Node3</title>
<path fill="none" stroke="midnightblue" d="M138.61,-42.4C129.96,-41.29 121.37,-40.19 113.2,-39.14"/>
<polygon fill="midnightblue" stroke="midnightblue" points="138.41,-45.91 148.77,-43.71 139.3,-38.96 138.41,-45.91"/>
</g>
<!-- Node4&#45;&gt;Node3 -->
<g id="edge4" class="edge">
<title>Node4&#45;&gt;Node3</title>
<path fill="none" stroke="midnightblue" d="M192.91,-14.63C169.84,-17.59 139.45,-21.49 113.31,-24.84"/>
<polygon fill="midnightblue" stroke="midnightblue" points="193.48,-18.09 202.95,-13.34 192.59,-11.14 193.48,-18.09"/>
</g>
</g>
</svg>
