<?xml version="1.0" encoding="UTF-8" standalone="no"?>
<!DOCTYPE svg PUBLIC "-//W3C//DTD SVG 1.1//EN"
 "http://www.w3.org/Graphics/SVG/1.1/DTD/svg11.dtd">
<!-- Generated by graphviz version 2.43.0 (0)
 -->
<!-- Title: findDiffer Pages: 1 -->
<svg width="320pt" height="66pt"
 viewBox="0.00 0.00 320.00 66.00" xmlns="http://www.w3.org/2000/svg" xmlns:xlink="http://www.w3.org/1999/xlink">
<g id="graph0" class="graph" transform="scale(1 1) rotate(0) translate(4 62)">
<title>findDiffer</title>
<polygon fill="white" stroke="transparent" points="-4,4 -4,-62 316,-62 316,4 -4,4"/>
<!-- Node1 -->
<g id="node1" class="node">
<title>Node1</title>
<g id="a_node1"><a xlink:title="Determine difference of two parameters 输入两个api参数部分，判断参数部分有何不同">
<polygon fill="#bfbfbf" stroke="black" points="0,-19.5 0,-38.5 62,-38.5 62,-19.5 0,-19.5"/>
<text text-anchor="middle" x="31" y="-26.5" font-family="Helvetica,sans-Serif" font-size="10.00">findDiffer</text>
</a>
</g>
</g>
<!-- Node2 -->
<g id="node2" class="node">
<title>Node2</title>
<g id="a_node2"><a xlink:href="namespacechangeAnalyze.html#ab13af561e1ebeec90579c692f5bce329" target="_top" xlink:title="Determine parameter type change: compatible type means no type change &#160;&#160;判断两个参数的类型是否发生了变更: 只要兼容，就认为相同">
<polygon fill="white" stroke="black" points="98,-38.5 98,-57.5 172,-57.5 172,-38.5 98,-38.5"/>
<text text-anchor="middle" x="135" y="-45.5" font-family="Helvetica,sans-Serif" font-size="10.00">isDifferType</text>
</a>
</g>
</g>
<!-- Node1&#45;&gt;Node2 -->
<g id="edge1" class="edge">
<title>Node1&#45;&gt;Node2</title>
<path fill="none" stroke="midnightblue" d="M62.05,-34.6C70.08,-36.09 78.94,-37.74 87.62,-39.36"/>
<polygon fill="midnightblue" stroke="midnightblue" points="87.2,-42.84 97.67,-41.23 88.48,-35.96 87.2,-42.84"/>
</g>
<!-- Node4 -->
<g id="node4" class="node">
<title>Node4</title>
<g id="a_node4"><a xlink:href="namespacechangeAnalyze.html#a9b577b97754fdc8097f5837944e9b010" target="_top" xlink:title="Convert parameter string to positional and keyword parameter objects 将参数字符串转换为位置和关键字参数对象">
<polygon fill="white" stroke="black" points="104.5,-0.5 104.5,-19.5 165.5,-19.5 165.5,-0.5 104.5,-0.5"/>
<text text-anchor="middle" x="135" y="-7.5" font-family="Helvetica,sans-Serif" font-size="10.00">para2Obj</text>
</a>
</g>
</g>
<!-- Node1&#45;&gt;Node4 -->
<g id="edge3" class="edge">
<title>Node1&#45;&gt;Node4</title>
<path fill="none" stroke="midnightblue" d="M62.05,-23.4C72.12,-21.53 83.5,-19.41 94.19,-17.42"/>
<polygon fill="midnightblue" stroke="midnightblue" points="94.97,-20.83 104.16,-15.56 93.69,-13.95 94.97,-20.83"/>
</g>
<!-- Node3 -->
<g id="node3" class="node">
<title>Node3</title>
<g id="a_node3"><a xlink:href="namespacetool.html#a79b523c932db90445596767f644be48c" target="_top" xlink:title="Split parameter string into list of separated parameters 将参数字符串拆分成单个的参数">
<polygon fill="white" stroke="black" points="208,-19.5 208,-38.5 312,-38.5 312,-19.5 208,-19.5"/>
<text text-anchor="middle" x="260" y="-26.5" font-family="Helvetica,sans-Serif" font-size="10.00">tool.getParameter</text>
</a>
</g>
</g>
<!-- Node2&#45;&gt;Node3 -->
<g id="edge2" class="edge">
<title>Node2&#45;&gt;Node3</title>
<path fill="none" stroke="midnightblue" d="M172.24,-42.4C180.37,-41.15 189.22,-39.78 198.06,-38.41"/>
<polygon fill="midnightblue" stroke="midnightblue" points="198.63,-41.87 207.98,-36.88 197.57,-34.95 198.63,-41.87"/>
</g>
<!-- Node4&#45;&gt;Node3 -->
<g id="edge4" class="edge">
<title>Node4&#45;&gt;Node3</title>
<path fill="none" stroke="midnightblue" d="M165.77,-14.6C175.46,-16.1 186.6,-17.82 197.73,-19.53"/>
<polygon fill="midnightblue" stroke="midnightblue" points="197.48,-23.04 207.9,-21.11 198.55,-16.12 197.48,-23.04"/>
</g>
</g>
</svg>
