<?xml version="1.0" encoding="UTF-8" standalone="no"?>
<!DOCTYPE svg PUBLIC "-//W3C//DTD SVG 1.1//EN"
 "http://www.w3.org/Graphics/SVG/1.1/DTD/svg11.dtd">
<!-- Generated by graphviz version 2.43.0 (0)
 -->
<!-- Title: getSourceCodePath Pages: 1 -->
<svg width="420pt" height="28pt"
 viewBox="0.00 0.00 420.00 28.00" xmlns="http://www.w3.org/2000/svg" xmlns:xlink="http://www.w3.org/1999/xlink">
<g id="graph0" class="graph" transform="scale(1 1) rotate(0) translate(4 24)">
<title>getSourceCodePath</title>
<polygon fill="white" stroke="transparent" points="-4,4 -4,-24 416,-24 416,4 -4,4"/>
<!-- Node1 -->
<g id="node1" class="node">
<title>Node1</title>
<g id="a_node1"><a xlink:title="Get source code path of the lib 获取库源码路径">
<polygon fill="#bfbfbf" stroke="black" points="0,-0.5 0,-19.5 111,-19.5 111,-0.5 0,-0.5"/>
<text text-anchor="middle" x="55.5" y="-7.5" font-family="Helvetica,sans-Serif" font-size="10.00">getSourceCodePath</text>
</a>
</g>
</g>
<!-- Node2 -->
<g id="node2" class="node">
<title>Node2</title>
<g id="a_node2"><a xlink:href="namespacetool.html#a2d4cc637e96018fc37642a78f93f7620" target="_top" xlink:title="Resolve the source package directory for a library in a virtual environment 从虚拟环境中解析库源码目录">
<polygon fill="white" stroke="black" points="147,-0.5 147,-19.5 293,-19.5 293,-0.5 147,-0.5"/>
<text text-anchor="middle" x="220" y="-7.5" font-family="Helvetica,sans-Serif" font-size="10.00">resolveLibSourceCodePath</text>
</a>
</g>
</g>
<!-- Node1&#45;&gt;Node2 -->
<g id="edge1" class="edge">
<title>Node1&#45;&gt;Node2</title>
<path fill="none" stroke="midnightblue" d="M111.06,-10C119.35,-10 128.05,-10 136.76,-10"/>
<polygon fill="midnightblue" stroke="midnightblue" points="136.98,-13.5 146.98,-10 136.98,-6.5 136.98,-13.5"/>
</g>
<!-- Node3 -->
<g id="node3" class="node">
<title>Node3</title>
<g id="a_node3"><a xlink:href="namespacetool.html#af97e9e63a1ae8577bbe8865743d57b21" target="_top" xlink:title="Get Python interpreter path 获取Python解释器路径">
<polygon fill="white" stroke="black" points="329,-0.5 329,-19.5 412,-19.5 412,-0.5 329,-0.5"/>
<text text-anchor="middle" x="370.5" y="-7.5" font-family="Helvetica,sans-Serif" font-size="10.00">findPythonDir</text>
</a>
</g>
</g>
<!-- Node2&#45;&gt;Node3 -->
<g id="edge2" class="edge">
<title>Node2&#45;&gt;Node3</title>
<path fill="none" stroke="midnightblue" d="M293.07,-10C301.7,-10 310.36,-10 318.6,-10"/>
<polygon fill="midnightblue" stroke="midnightblue" points="318.77,-13.5 328.77,-10 318.77,-6.5 318.77,-13.5"/>
</g>
</g>
</svg>
