<?xml version="1.0" encoding="UTF-8" standalone="no"?>
<!DOCTYPE svg PUBLIC "-//W3C//DTD SVG 1.1//EN"
 "http://www.w3.org/Graphics/SVG/1.1/DTD/svg11.dtd">
<!-- Generated by graphviz version 2.43.0 (0)
 -->
<!-- Title: getFileName Pages: 1 -->
<svg width="388pt" height="47pt"
 viewBox="0.00 0.00 388.00 47.00" xmlns="http://www.w3.org/2000/svg" xmlns:xlink="http://www.w3.org/1999/xlink">
<g id="graph0" class="graph" transform="scale(1 1) rotate(0) translate(4 43)">
<title>getFileName</title>
<polygon fill="white" stroke="transparent" points="-4,4 -4,-43 384,-43 384,4 -4,4"/>
<!-- Node1 -->
<g id="node1" class="node">
<title>Node1</title>
<g id="a_node1"><a xlink:title="Normalize file name 给文件取名字">
<polygon fill="#bfbfbf" stroke="black" points="0,-19.5 0,-38.5 79,-38.5 79,-19.5 0,-19.5"/>
<text text-anchor="middle" x="39.5" y="-26.5" font-family="Helvetica,sans-Serif" font-size="10.00">getFileName</text>
</a>
</g>
</g>
<!-- Node2 -->
<g id="node2" class="node">
<title>Node2</title>
<g id="a_node2"><a xlink:href="namespacetool.html#adb980fd487d69797992c72e9b8c73326" target="_top" xlink:title="Return artifact hash from an artifact id 从运行产物id中提取hash.">
<polygon fill="white" stroke="black" points="287,-19.5 287,-38.5 380,-38.5 380,-19.5 287,-19.5"/>
<text text-anchor="middle" x="333.5" y="-26.5" font-family="Helvetica,sans-Serif" font-size="10.00">getArtifactHash</text>
</a>
</g>
</g>
<!-- Node1&#45;&gt;Node2 -->
<g id="edge1" class="edge">
<title>Node1&#45;&gt;Node2</title>
<path fill="none" stroke="midnightblue" d="M79.28,-29C129.91,-29 218.9,-29 276.76,-29"/>
<polygon fill="midnightblue" stroke="midnightblue" points="276.83,-32.5 286.83,-29 276.83,-25.5 276.83,-32.5"/>
</g>
<!-- Node3 -->
<g id="node3" class="node">
<title>Node3</title>
<g id="a_node3"><a xlink:href="namespacetool.html#a3d830c5894b1bc76beb533d6aa2d55f3" target="_top" xlink:title="Shorten artifact file name while preserving full hash 缩短运行产物文件名并保留完整hash.">
<polygon fill="white" stroke="black" points="115,-0.5 115,-19.5 251,-19.5 251,-0.5 115,-0.5"/>
<text text-anchor="middle" x="183" y="-7.5" font-family="Helvetica,sans-Serif" font-size="10.00">shortenArtifactFileName</text>
</a>
</g>
</g>
<!-- Node1&#45;&gt;Node3 -->
<g id="edge2" class="edge">
<title>Node1&#45;&gt;Node3</title>
<path fill="none" stroke="midnightblue" d="M79.17,-23.81C87.19,-22.73 95.92,-21.56 104.78,-20.37"/>
<polygon fill="midnightblue" stroke="midnightblue" points="105.37,-23.82 114.81,-19.02 104.43,-16.88 105.37,-23.82"/>
</g>
<!-- Node3&#45;&gt;Node2 -->
<g id="edge3" class="edge">
<title>Node3&#45;&gt;Node2</title>
<path fill="none" stroke="midnightblue" d="M251.3,-18.61C259.81,-19.7 268.44,-20.8 276.75,-21.87"/>
<polygon fill="midnightblue" stroke="midnightblue" points="276.32,-25.34 286.68,-23.14 277.21,-18.4 276.32,-25.34"/>
</g>
</g>
</svg>
