<?xml version="1.0" encoding="UTF-8" standalone="no"?>
<!DOCTYPE svg PUBLIC "-//W3C//DTD SVG 1.1//EN"
 "http://www.w3.org/Graphics/SVG/1.1/DTD/svg11.dtd">
<!-- Generated by graphviz version 2.43.0 (0)
 -->
<!-- Title: hasSaveFailedManifest Pages: 1 -->
<svg width="619pt" height="47pt"
 viewBox="0.00 0.00 619.00 47.00" xmlns="http://www.w3.org/2000/svg" xmlns:xlink="http://www.w3.org/1999/xlink">
<g id="graph0" class="graph" transform="scale(1 1) rotate(0) translate(4 43)">
<title>hasSaveFailedManifest</title>
<polygon fill="white" stroke="transparent" points="-4,4 -4,-43 615,-43 615,4 -4,4"/>
<!-- Node1 -->
<g id="node1" class="node">
<title>Node1</title>
<g id="a_node1"><a xlink:title="Check whether a callsite candidate manifest records pkl save failure 检查调用点候选清单是否记录了pkl保存失败">
<polygon fill="#bfbfbf" stroke="black" points="0,-19.5 0,-38.5 129,-38.5 129,-19.5 0,-19.5"/>
<text text-anchor="middle" x="64.5" y="-26.5" font-family="Helvetica,sans-Serif" font-size="10.00">hasSaveFailedManifest</text>
</a>
</g>
</g>
<!-- Node2 -->
<g id="node2" class="node">
<title>Node2</title>
<g id="a_node2"><a xlink:href="namespacetool.html#a738ffb440e1ecdd990c95702ed30da31" target="_top" xlink:title="Normalize file name 给文件取名字">
<polygon fill="white" stroke="black" points="165,-19.5 165,-38.5 266,-38.5 266,-19.5 165,-19.5"/>
<text text-anchor="middle" x="215.5" y="-26.5" font-family="Helvetica,sans-Serif" font-size="10.00">tool.getFileName</text>
</a>
</g>
</g>
<!-- Node1&#45;&gt;Node2 -->
<g id="edge1" class="edge">
<title>Node1&#45;&gt;Node2</title>
<path fill="none" stroke="midnightblue" d="M129.12,-29C137.56,-29 146.18,-29 154.55,-29"/>
<polygon fill="midnightblue" stroke="midnightblue" points="154.61,-32.5 164.61,-29 154.61,-25.5 154.61,-32.5"/>
</g>
<!-- Node3 -->
<g id="node3" class="node">
<title>Node3</title>
<g id="a_node3"><a xlink:href="namespacetool.html#adb980fd487d69797992c72e9b8c73326" target="_top" xlink:title="Return artifact hash from an artifact id 从运行产物id中提取hash.">
<polygon fill="white" stroke="black" points="496,-19.5 496,-38.5 611,-38.5 611,-19.5 496,-19.5"/>
<text text-anchor="middle" x="553.5" y="-26.5" font-family="Helvetica,sans-Serif" font-size="10.00">tool.getArtifactHash</text>
</a>
</g>
</g>
<!-- Node2&#45;&gt;Node3 -->
<g id="edge2" class="edge">
<title>Node2&#45;&gt;Node3</title>
<path fill="none" stroke="midnightblue" d="M266.08,-29C324.3,-29 421.13,-29 485.87,-29"/>
<polygon fill="midnightblue" stroke="midnightblue" points="485.98,-32.5 495.98,-29 485.98,-25.5 485.98,-32.5"/>
</g>
<!-- Node4 -->
<g id="node4" class="node">
<title>Node4</title>
<g id="a_node4"><a xlink:href="namespacetool.html#a3d830c5894b1bc76beb533d6aa2d55f3" target="_top" xlink:title="Shorten artifact file name while preserving full hash 缩短运行产物文件名并保留完整hash.">
<polygon fill="white" stroke="black" points="302,-0.5 302,-19.5 460,-19.5 460,-0.5 302,-0.5"/>
<text text-anchor="middle" x="381" y="-7.5" font-family="Helvetica,sans-Serif" font-size="10.00">tool.shortenArtifactFileName</text>
</a>
</g>
</g>
<!-- Node2&#45;&gt;Node4 -->
<g id="edge3" class="edge">
<title>Node2&#45;&gt;Node4</title>
<path fill="none" stroke="midnightblue" d="M266.44,-23.2C274.48,-22.26 282.99,-21.27 291.61,-20.27"/>
<polygon fill="midnightblue" stroke="midnightblue" points="292.22,-23.72 301.75,-19.09 291.41,-16.77 292.22,-23.72"/>
</g>
<!-- Node4&#45;&gt;Node3 -->
<g id="edge4" class="edge">
<title>Node4&#45;&gt;Node3</title>
<path fill="none" stroke="midnightblue" d="M460.26,-18.72C468.73,-19.66 477.28,-20.62 485.6,-21.54"/>
<polygon fill="midnightblue" stroke="midnightblue" points="485.27,-25.03 495.59,-22.66 486.04,-18.07 485.27,-25.03"/>
</g>
</g>
</svg>
