<?xml version="1.0" encoding="UTF-8" standalone="no"?>
<!DOCTYPE svg PUBLIC "-//W3C//DTD SVG 1.1//EN"
 "http://www.w3.org/Graphics/SVG/1.1/DTD/svg11.dtd">
<!-- Generated by graphviz version 2.43.0 (0)
 -->
<!-- Title: getCallFunction Pages: 1 -->
<svg width="658pt" height="142pt"
 viewBox="0.00 0.00 658.00 142.00" xmlns="http://www.w3.org/2000/svg" xmlns:xlink="http://www.w3.org/1999/xlink">
<g id="graph0" class="graph" transform="scale(1 1) rotate(0) translate(4 138)">
<title>getCallFunction</title>
<polygon fill="white" stroke="transparent" points="-4,4 -4,-138 654,-138 654,4 -4,4"/>
<!-- Node1 -->
<g id="node1" class="node">
<title>Node1</title>
<g id="a_node1"><a xlink:title="Extract all API calls from a given .py file 每次传进来一个.py文件，抽取所有的调用API.">
<polygon fill="#bfbfbf" stroke="black" points="558,-57.5 558,-76.5 650,-76.5 650,-57.5 558,-57.5"/>
<text text-anchor="middle" x="604" y="-64.5" font-family="Helvetica,sans-Serif" font-size="10.00">getCallFunction</text>
</a>
</g>
</g>
<!-- Node2 -->
<g id="node2" class="node">
<title>Node2</title>
<g id="a_node2"><a xlink:href="namespacepreprocess.html#abebae1853405a150b463cba60b0577ed" target="_top" xlink:title="Code instrumentation for all API calls within a project source file 项目源文件所有API调用代码插桩">
<polygon fill="white" stroke="black" points="385,-114.5 385,-133.5 508,-133.5 508,-114.5 385,-114.5"/>
<text text-anchor="middle" x="446.5" y="-121.5" font-family="Helvetica,sans-Serif" font-size="10.00">preprocess.addDictAll</text>
</a>
</g>
</g>
<!-- Node1&#45;&gt;Node2 -->
<g id="edge1" class="edge">
<title>Node1&#45;&gt;Node2</title>
<path fill="none" stroke="midnightblue" d="M576.06,-81.21C560.56,-88.98 540.53,-98.36 522,-105 512.07,-108.56 501.18,-111.73 490.86,-114.41"/>
<polygon fill="midnightblue" stroke="midnightblue" points="577.76,-84.27 585.08,-76.61 574.58,-78.03 577.76,-84.27"/>
</g>
<!-- Node6 -->
<g id="node6" class="node">
<title>Node6</title>
<g id="a_node6"><a xlink:href="namespacemain.html#a052341442960b76f576383f354689bc5" target="_top" xlink:title="One process handles one file 一个进程处理一个文件">
<polygon fill="white" stroke="black" points="390,-76.5 390,-95.5 503,-95.5 503,-76.5 390,-76.5"/>
<text text-anchor="middle" x="446.5" y="-83.5" font-family="Helvetica,sans-Serif" font-size="10.00">main.backwardTask</text>
</a>
</g>
</g>
<!-- Node1&#45;&gt;Node6 -->
<g id="edge5" class="edge">
<title>Node1&#45;&gt;Node6</title>
<path fill="none" stroke="midnightblue" d="M547.37,-73.8C533,-75.55 517.53,-77.44 503.16,-79.2"/>
<polygon fill="midnightblue" stroke="midnightblue" points="548.1,-77.23 557.6,-72.55 547.25,-70.29 548.1,-77.23"/>
</g>
<!-- Node7 -->
<g id="node7" class="node">
<title>Node7</title>
<g id="a_node7"><a xlink:href="namespacepreprocess.html#a1be44b4612b83c96456034d7eef3a376" target="_top" xlink:title="Convert the ListComp and DictComp statements to variable assignment statements 将列表推导式listComp和字典推导式Di...">
<polygon fill="white" stroke="black" points="371,-38.5 371,-57.5 522,-57.5 522,-38.5 371,-38.5"/>
<text text-anchor="middle" x="446.5" y="-45.5" font-family="Helvetica,sans-Serif" font-size="10.00">preprocess.convertLocalVar</text>
</a>
</g>
</g>
<!-- Node1&#45;&gt;Node7 -->
<g id="edge6" class="edge">
<title>Node1&#45;&gt;Node7</title>
<path fill="none" stroke="midnightblue" d="M547.45,-60.21C539.26,-59.21 530.71,-58.17 522.21,-57.13"/>
<polygon fill="midnightblue" stroke="midnightblue" points="547.25,-63.71 557.6,-61.45 548.1,-56.77 547.25,-63.71"/>
</g>
<!-- Node8 -->
<g id="node8" class="node">
<title>Node8</title>
<g id="a_node8"><a xlink:href="namespacepreprocess.html#af67fd0a454bad0ef82391bf1d745b87f" target="_top" xlink:title="Save structure information of the project 保存项目的结构信息">
<polygon fill="white" stroke="black" points="376.5,-0.5 376.5,-19.5 516.5,-19.5 516.5,-0.5 376.5,-0.5"/>
<text text-anchor="middle" x="446.5" y="-7.5" font-family="Helvetica,sans-Serif" font-size="10.00">preprocess.saveStructure</text>
</a>
</g>
</g>
<!-- Node1&#45;&gt;Node8 -->
<g id="edge8" class="edge">
<title>Node1&#45;&gt;Node8</title>
<path fill="none" stroke="midnightblue" d="M576.06,-52.79C560.56,-45.02 540.53,-35.64 522,-29 512.07,-25.44 501.18,-22.27 490.86,-19.59"/>
<polygon fill="midnightblue" stroke="midnightblue" points="574.58,-55.97 585.08,-57.39 577.76,-49.73 574.58,-55.97"/>
</g>
<!-- Node3 -->
<g id="node3" class="node">
<title>Node3</title>
<g id="a_node3"><a xlink:href="namespacepreprocess.html#a2eec1d8b2c398e66364228c1ad0c6ff9" target="_top" xlink:title="Code processing 代码预处理">
<polygon fill="white" stroke="black" points="201,-38.5 201,-57.5 335,-57.5 335,-38.5 201,-38.5"/>
<text text-anchor="middle" x="268" y="-45.5" font-family="Helvetica,sans-Serif" font-size="10.00">preprocess.codeProcess</text>
</a>
</g>
</g>
<!-- Node2&#45;&gt;Node3 -->
<g id="edge2" class="edge">
<title>Node2&#45;&gt;Node3</title>
<path fill="none" stroke="midnightblue" d="M390.35,-111.66C383.74,-109.68 377.16,-107.46 371,-105 338.03,-91.84 302.47,-70.04 283.27,-57.56"/>
<polygon fill="midnightblue" stroke="midnightblue" points="389.41,-115.04 399.99,-114.4 391.32,-108.3 389.41,-115.04"/>
</g>
<!-- Node4 -->
<g id="node4" class="node">
<title>Node4</title>
<g id="a_node4"><a xlink:href="namespacemain.html#a54735b5e5f3ae5ec9c331c9117618719" target="_top" xlink:title="Run PCART with an isolated workspace 在隔离工作区中运行PCART.">
<polygon fill="white" stroke="black" points="105,-38.5 105,-57.5 165,-57.5 165,-38.5 105,-38.5"/>
<text text-anchor="middle" x="135" y="-45.5" font-family="Helvetica,sans-Serif" font-size="10.00">main.run</text>
</a>
</g>
</g>
<!-- Node3&#45;&gt;Node4 -->
<g id="edge3" class="edge">
<title>Node3&#45;&gt;Node4</title>
<path fill="none" stroke="midnightblue" d="M190.57,-48C181.65,-48 173,-48 165.32,-48"/>
<polygon fill="midnightblue" stroke="midnightblue" points="190.73,-51.5 200.73,-48 190.73,-44.5 190.73,-51.5"/>
</g>
<!-- Node5 -->
<g id="node5" class="node">
<title>Node5</title>
<g id="a_node5"><a xlink:href="namespacemain.html#af613cea4cba4fb7de8e40896b3368945" target="_top" xlink:title="Main function of PCART PCART主函数">
<polygon fill="white" stroke="black" points="0,-38.5 0,-57.5 69,-57.5 69,-38.5 0,-38.5"/>
<text text-anchor="middle" x="34.5" y="-45.5" font-family="Helvetica,sans-Serif" font-size="10.00">main.main</text>
</a>
</g>
</g>
<!-- Node4&#45;&gt;Node5 -->
<g id="edge4" class="edge">
<title>Node4&#45;&gt;Node5</title>
<path fill="none" stroke="midnightblue" d="M94.88,-48C86.37,-48 77.44,-48 69.17,-48"/>
<polygon fill="midnightblue" stroke="midnightblue" points="94.98,-51.5 104.98,-48 94.98,-44.5 94.98,-51.5"/>
</g>
<!-- Node7&#45;&gt;Node3 -->
<g id="edge7" class="edge">
<title>Node7&#45;&gt;Node3</title>
<path fill="none" stroke="midnightblue" d="M360.84,-48C352.23,-48 343.58,-48 335.21,-48"/>
<polygon fill="midnightblue" stroke="midnightblue" points="360.9,-51.5 370.9,-48 360.9,-44.5 360.9,-51.5"/>
</g>
<!-- Node8&#45;&gt;Node3 -->
<g id="edge9" class="edge">
<title>Node8&#45;&gt;Node3</title>
<path fill="none" stroke="midnightblue" d="M390.91,-21.75C365.96,-27.13 336.77,-33.41 313.22,-38.48"/>
<polygon fill="midnightblue" stroke="midnightblue" points="391.92,-25.12 400.96,-19.59 390.45,-18.27 391.92,-25.12"/>
</g>
</g>
</svg>
