<?xml version="1.0" encoding="UTF-8" standalone="no"?>
<!DOCTYPE svg PUBLIC "-//W3C//DTD SVG 1.1//EN"
 "http://www.w3.org/Graphics/SVG/1.1/DTD/svg11.dtd">
<!-- Generated by graphviz version 2.43.0 (0)
 -->
<!-- Title: codeProcess Pages: 1 -->
<svg width="814pt" height="864pt"
 viewBox="0.00 0.00 814.00 864.00" xmlns="http://www.w3.org/2000/svg" xmlns:xlink="http://www.w3.org/1999/xlink">
<g id="graph0" class="graph" transform="scale(1 1) rotate(0) translate(4 860)">
<title>codeProcess</title>
<polygon fill="white" stroke="transparent" points="-4,4 -4,-860 810,-860 810,4 -4,4"/>
<!-- Node1 -->
<g id="node1" class="node">
<title>Node1</title>
<g id="a_node1"><a xlink:title="Code processing 代码预处理">
<polygon fill="#bfbfbf" stroke="black" points="0,-228.5 0,-247.5 77,-247.5 77,-228.5 0,-228.5"/>
<text text-anchor="middle" x="38.5" y="-235.5" font-family="Helvetica,sans-Serif" font-size="10.00">codeProcess</text>
</a>
</g>
</g>
<!-- Node2 -->
<g id="node2" class="node">
<title>Node2</title>
<g id="a_node2"><a xlink:href="namespacepreprocess.html#abebae1853405a150b463cba60b0577ed" target="_top" xlink:title="Code instrumentation for all API calls within a project source file 项目源文件所有API调用代码插桩">
<polygon fill="white" stroke="black" points="157,-418.5 157,-437.5 224,-437.5 224,-418.5 157,-418.5"/>
<text text-anchor="middle" x="190.5" y="-425.5" font-family="Helvetica,sans-Serif" font-size="10.00">addDictAll</text>
</a>
</g>
</g>
<!-- Node1&#45;&gt;Node2 -->
<g id="edge1" class="edge">
<title>Node1&#45;&gt;Node2</title>
<path fill="none" stroke="midnightblue" d="M43.12,-247.55C52.2,-270.66 77.78,-330.65 113,-371 127.57,-387.69 147.8,-402.5 163.79,-412.84"/>
<polygon fill="midnightblue" stroke="midnightblue" points="162.32,-416.04 172.65,-418.39 166.03,-410.11 162.32,-416.04"/>
</g>
<!-- Node20 -->
<g id="node20" class="node">
<title>Node20</title>
<g id="a_node20"><a xlink:href="namespacepreprocess.html#a1be44b4612b83c96456034d7eef3a376" target="_top" xlink:title="Convert the ListComp and DictComp statements to variable assignment statements 将列表推导式listComp和字典推导式Di...">
<polygon fill="white" stroke="black" points="143,-684.5 143,-703.5 238,-703.5 238,-684.5 143,-684.5"/>
<text text-anchor="middle" x="190.5" y="-691.5" font-family="Helvetica,sans-Serif" font-size="10.00">convertLocalVar</text>
</a>
</g>
</g>
<!-- Node1&#45;&gt;Node20 -->
<g id="edge21" class="edge">
<title>Node1&#45;&gt;Node20</title>
<path fill="none" stroke="midnightblue" d="M42.63,-247.52C61.24,-304.08 157.26,-595.99 183.09,-674.52"/>
<polygon fill="midnightblue" stroke="midnightblue" points="179.81,-675.74 186.26,-684.14 186.46,-673.55 179.81,-675.74"/>
</g>
<!-- Node23 -->
<g id="node23" class="node">
<title>Node23</title>
<g id="a_node23"><a xlink:href="namespacepreprocess.html#a422e51d3c4d2044bcb0159a2ebc0df60" target="_top" xlink:title="Convert tabs to spaces in all Python files within a directory 将目录下所有Python文件中的制表符转换为空格">
<polygon fill="white" stroke="black" points="130.5,-228.5 130.5,-247.5 250.5,-247.5 250.5,-228.5 130.5,-228.5"/>
<text text-anchor="middle" x="190.5" y="-235.5" font-family="Helvetica,sans-Serif" font-size="10.00">convertTabsToSpaces</text>
</a>
</g>
</g>
<!-- Node1&#45;&gt;Node23 -->
<g id="edge26" class="edge">
<title>Node1&#45;&gt;Node23</title>
<path fill="none" stroke="midnightblue" d="M77.35,-238C90.4,-238 105.45,-238 120.2,-238"/>
<polygon fill="midnightblue" stroke="midnightblue" points="120.34,-241.5 130.34,-238 120.34,-234.5 120.34,-241.5"/>
</g>
<!-- Node24 -->
<g id="node24" class="node">
<title>Node24</title>
<g id="a_node24"><a xlink:href="namespacepreprocess.html#a4c279837bca66be1c336af00420eb4ad" target="_top" xlink:title="Expand the single&#45;line conditional return statement into a multi&#45;line if&#45;else structure &#160;&#160;展开单行条件retur...">
<polygon fill="white" stroke="black" points="120.5,-304.5 120.5,-323.5 260.5,-323.5 260.5,-304.5 120.5,-304.5"/>
<text text-anchor="middle" x="190.5" y="-311.5" font-family="Helvetica,sans-Serif" font-size="10.00">expandConditionalReturn</text>
</a>
</g>
</g>
<!-- Node1&#45;&gt;Node24 -->
<g id="edge27" class="edge">
<title>Node1&#45;&gt;Node24</title>
<path fill="none" stroke="midnightblue" d="M49.06,-247.59C62.28,-260.31 87.43,-282.6 113,-295 117.93,-297.39 123.18,-299.49 128.54,-301.35"/>
<polygon fill="midnightblue" stroke="midnightblue" points="127.66,-304.74 138.25,-304.42 129.77,-298.07 127.66,-304.74"/>
</g>
<!-- Node25 -->
<g id="node25" class="node">
<title>Node25</title>
<g id="a_node25"><a xlink:href="namespacepreprocess.html#a79af2a91a7fa51e11b82e40207c48957" target="_top" xlink:title="Get all lib&#45;related import statements 获取所有第三方库相关的import语句">
<polygon fill="white" stroke="black" points="144,-190.5 144,-209.5 237,-209.5 237,-190.5 144,-190.5"/>
<text text-anchor="middle" x="190.5" y="-197.5" font-family="Helvetica,sans-Serif" font-size="10.00">getLibImportLst</text>
</a>
</g>
</g>
<!-- Node1&#45;&gt;Node25 -->
<g id="edge29" class="edge">
<title>Node1&#45;&gt;Node25</title>
<path fill="none" stroke="midnightblue" d="M76.12,-228.46C87.89,-225.41 100.99,-222.04 113,-219 121.96,-216.73 131.52,-214.33 140.74,-212.04"/>
<polygon fill="midnightblue" stroke="midnightblue" points="141.7,-215.4 150.56,-209.59 140.02,-208.61 141.7,-215.4"/>
</g>
<!-- Node26 -->
<g id="node26" class="node">
<title>Node26</title>
<g id="a_node26"><a xlink:href="namespacetool.html#ae11019ef37390ec657efde69354884aa" target="_top" xlink:title="Extract the .py script filename from a run command 从运行命令中提取.py脚本文件名">
<polygon fill="white" stroke="black" points="145.5,-152.5 145.5,-171.5 235.5,-171.5 235.5,-152.5 145.5,-152.5"/>
<text text-anchor="middle" x="190.5" y="-159.5" font-family="Helvetica,sans-Serif" font-size="10.00">tool.getRunFile</text>
</a>
</g>
</g>
<!-- Node1&#45;&gt;Node26 -->
<g id="edge30" class="edge">
<title>Node1&#45;&gt;Node26</title>
<path fill="none" stroke="midnightblue" d="M49.06,-228.41C62.28,-215.69 87.43,-193.4 113,-181 120.01,-177.6 127.69,-174.77 135.39,-172.43"/>
<polygon fill="midnightblue" stroke="midnightblue" points="136.42,-175.78 145.11,-169.72 134.54,-169.03 136.42,-175.78"/>
</g>
<!-- Node27 -->
<g id="node27" class="node">
<title>Node27</title>
<g id="a_node27"><a xlink:href="namespaceworkspace.html#aba6396054179aaa393205a76b303d7a6" target="_top" xlink:title="Return runtime artifact paths for the current execution 返回当前执行使用的运行产物路径">
<polygon fill="white" stroke="black" points="113,-114.5 113,-133.5 268,-133.5 268,-114.5 113,-114.5"/>
<text text-anchor="middle" x="190.5" y="-121.5" font-family="Helvetica,sans-Serif" font-size="10.00">workspace.getRuntimePaths</text>
</a>
</g>
</g>
<!-- Node1&#45;&gt;Node27 -->
<g id="edge31" class="edge">
<title>Node1&#45;&gt;Node27</title>
<path fill="none" stroke="midnightblue" d="M44.08,-228.47C53.87,-209.15 78.76,-165.33 113,-143 116.17,-140.93 119.54,-139.09 123.04,-137.45"/>
<polygon fill="midnightblue" stroke="midnightblue" points="124.61,-140.59 132.54,-133.56 121.96,-134.11 124.61,-140.59"/>
</g>
<!-- Node28 -->
<g id="node28" class="node">
<title>Node28</title>
<g id="a_node28"><a xlink:href="namespacepreprocess.html#ad272e396d54aa1eb3a41c36c1949323e" target="_top" xlink:title="Code instrumentation for project run file 项目运行文件代码插桩">
<polygon fill="white" stroke="black" points="147.5,-266.5 147.5,-285.5 233.5,-285.5 233.5,-266.5 147.5,-266.5"/>
<text text-anchor="middle" x="190.5" y="-273.5" font-family="Helvetica,sans-Serif" font-size="10.00">handleRunFile</text>
</a>
</g>
</g>
<!-- Node1&#45;&gt;Node28 -->
<g id="edge32" class="edge">
<title>Node1&#45;&gt;Node28</title>
<path fill="none" stroke="midnightblue" d="M76.12,-247.54C87.89,-250.59 100.99,-253.96 113,-257 121.96,-259.27 131.52,-261.67 140.74,-263.96"/>
<polygon fill="midnightblue" stroke="midnightblue" points="140.02,-267.39 150.56,-266.41 141.7,-260.6 140.02,-267.39"/>
</g>
<!-- Node29 -->
<g id="node29" class="node">
<title>Node29</title>
<g id="a_node29"><a xlink:href="namespacepreprocess.html#ac314c05ac2de819eb7e15c9a091beb5d" target="_top" xlink:title="Save import statement to source file 将import语句保存到源码中">
<polygon fill="white" stroke="black" points="137,-76.5 137,-95.5 244,-95.5 244,-76.5 137,-76.5"/>
<text text-anchor="middle" x="190.5" y="-83.5" font-family="Helvetica,sans-Serif" font-size="10.00">modifyFromImport</text>
</a>
</g>
</g>
<!-- Node1&#45;&gt;Node29 -->
<g id="edge34" class="edge">
<title>Node1&#45;&gt;Node29</title>
<path fill="none" stroke="midnightblue" d="M41.98,-228.19C48.78,-203.41 70.1,-137.93 113,-105 117.34,-101.67 122.19,-98.91 127.29,-96.63"/>
<polygon fill="midnightblue" stroke="midnightblue" points="128.6,-99.88 136.68,-93.03 126.09,-93.35 128.6,-99.88"/>
</g>
<!-- Node30 -->
<g id="node30" class="node">
<title>Node30</title>
<g id="a_node30"><a xlink:href="namespacepreprocess.html#a4c00e7633e0fd15cfaba6731cf8fe9b6" target="_top" xlink:title="Convert the multi&#45;line parameter calls in the code into a single line to facilitate insertion into di...">
<polygon fill="white" stroke="black" points="163,-342.5 163,-361.5 218,-361.5 218,-342.5 163,-342.5"/>
<text text-anchor="middle" x="190.5" y="-349.5" font-family="Helvetica,sans-Serif" font-size="10.00">oneLine</text>
</a>
</g>
</g>
<!-- Node1&#45;&gt;Node30 -->
<g id="edge35" class="edge">
<title>Node1&#45;&gt;Node30</title>
<path fill="none" stroke="midnightblue" d="M44.08,-247.53C53.87,-266.85 78.76,-310.67 113,-333 124.87,-340.74 139.67,-345.33 153.07,-348.05"/>
<polygon fill="midnightblue" stroke="midnightblue" points="152.52,-351.51 162.98,-349.79 153.73,-344.61 152.52,-351.51"/>
</g>
<!-- Node31 -->
<g id="node31" class="node">
<title>Node31</title>
<g id="a_node31"><a xlink:href="namespacepreprocess.html#af67fd0a454bad0ef82391bf1d745b87f" target="_top" xlink:title="Save structure information of the project 保存项目的结构信息">
<polygon fill="white" stroke="black" points="148.5,-760.5 148.5,-779.5 232.5,-779.5 232.5,-760.5 148.5,-760.5"/>
<text text-anchor="middle" x="190.5" y="-767.5" font-family="Helvetica,sans-Serif" font-size="10.00">saveStructure</text>
</a>
</g>
</g>
<!-- Node1&#45;&gt;Node31 -->
<g id="edge37" class="edge">
<title>Node1&#45;&gt;Node31</title>
<path fill="none" stroke="midnightblue" d="M40,-247.56C43.27,-307.34 63.07,-630.07 113,-713 124.1,-731.44 143.64,-745.84 160.19,-755.56"/>
<polygon fill="midnightblue" stroke="midnightblue" points="158.57,-758.66 169.01,-760.47 161.98,-752.55 158.57,-758.66"/>
</g>
<!-- Node34 -->
<g id="node34" class="node">
<title>Node34</title>
<g id="a_node34"><a xlink:href="namespacepreprocess.html#aa6aca43577a6c7675fc40529658b4787" target="_top" xlink:title="Get source script path from PCART repository 获取PCART仓库中的辅助脚本路径">
<polygon fill="white" stroke="black" points="158,-38.5 158,-57.5 223,-57.5 223,-38.5 158,-38.5"/>
<text text-anchor="middle" x="190.5" y="-45.5" font-family="Helvetica,sans-Serif" font-size="10.00">scriptPath</text>
</a>
</g>
</g>
<!-- Node1&#45;&gt;Node34 -->
<g id="edge41" class="edge">
<title>Node1&#45;&gt;Node34</title>
<path fill="none" stroke="midnightblue" d="M40.7,-228.1C44.8,-198.68 61.03,-111.14 113,-67 122.7,-58.76 135.44,-54 147.74,-51.28"/>
<polygon fill="midnightblue" stroke="midnightblue" points="148.67,-54.67 157.89,-49.44 147.42,-47.78 148.67,-54.67"/>
</g>
<!-- Node35 -->
<g id="node35" class="node">
<title>Node35</title>
<g id="a_node35"><a xlink:href="namespacepreprocess.html#a786d8e37525e381b79707973cf3509fb" target="_top" xlink:title="Write recordValue.py used by instrumented project files 写入插桩文件共享的recordValue.py.">
<polygon fill="white" stroke="black" points="139.5,-0.5 139.5,-19.5 241.5,-19.5 241.5,-0.5 139.5,-0.5"/>
<text text-anchor="middle" x="190.5" y="-7.5" font-family="Helvetica,sans-Serif" font-size="10.00">writeRecordValue</text>
</a>
</g>
</g>
<!-- Node1&#45;&gt;Node35 -->
<g id="edge42" class="edge">
<title>Node1&#45;&gt;Node35</title>
<path fill="none" stroke="midnightblue" d="M39.82,-228.38C41.47,-195.26 51.54,-84.9 113,-29 117.85,-24.59 123.56,-21.16 129.65,-18.51"/>
<polygon fill="midnightblue" stroke="midnightblue" points="131.24,-21.65 139.44,-14.94 128.85,-15.08 131.24,-21.65"/>
</g>
<!-- Node3 -->
<g id="node3" class="node">
<title>Node3</title>
<g id="a_node3"><a xlink:href="namespacepreprocess.html#aaab33bd46f0ae489d21ef62dff750446" target="_top" xlink:title="Count the number of spaces at the beginning of a string 计算字符串的前面有多少个空格">
<polygon fill="white" stroke="black" points="514.5,-342.5 514.5,-361.5 587.5,-361.5 587.5,-342.5 514.5,-342.5"/>
<text text-anchor="middle" x="551" y="-349.5" font-family="Helvetica,sans-Serif" font-size="10.00">countSpace</text>
</a>
</g>
</g>
<!-- Node2&#45;&gt;Node3 -->
<g id="edge2" class="edge">
<title>Node2&#45;&gt;Node3</title>
<path fill="none" stroke="midnightblue" d="M206.02,-418.28C226.74,-404.96 266.47,-381.51 304,-371 371.78,-352.02 453.89,-349.58 504.02,-350.26"/>
<polygon fill="midnightblue" stroke="midnightblue" points="504.15,-353.77 514.21,-350.45 504.28,-346.77 504.15,-353.77"/>
</g>
<!-- Node4 -->
<g id="node4" class="node">
<title>Node4</title>
<g id="a_node4"><a xlink:href="namespacetool.html#ac4d05a17f2f511bda4979dd476894896" target="_top" xlink:title="Split API call string based on parameter passing 根据参数传递拆分API调用字符串">
<polygon fill="white" stroke="black" points="328.5,-532.5 328.5,-551.5 414.5,-551.5 414.5,-532.5 328.5,-532.5"/>
<text text-anchor="middle" x="371.5" y="-539.5" font-family="Helvetica,sans-Serif" font-size="10.00">tool.departAPI</text>
</a>
</g>
</g>
<!-- Node2&#45;&gt;Node4 -->
<g id="edge3" class="edge">
<title>Node2&#45;&gt;Node4</title>
<path fill="none" stroke="midnightblue" d="M200.13,-437.62C217.76,-456.7 260.01,-499.55 304,-523 308.58,-525.44 313.52,-527.6 318.55,-529.51"/>
<polygon fill="midnightblue" stroke="midnightblue" points="317.7,-532.92 328.29,-532.86 319.98,-526.3 317.7,-532.92"/>
</g>
<!-- Node5 -->
<g id="node5" class="node">
<title>Node5</title>
<g id="a_node5"><a xlink:href="namespacetool.html#abd074786b2b2c49fb89912e52b42f1fc" target="_top" xlink:title="Split API call string based on separator &quot;.&quot; 根据&quot;.&quot;拆分API调用字符串">
<polygon fill="white" stroke="black" points="325.5,-494.5 325.5,-513.5 417.5,-513.5 417.5,-494.5 325.5,-494.5"/>
<text text-anchor="middle" x="371.5" y="-501.5" font-family="Helvetica,sans-Serif" font-size="10.00">tool.departAPI2</text>
</a>
</g>
</g>
<!-- Node2&#45;&gt;Node5 -->
<g id="edge4" class="edge">
<title>Node2&#45;&gt;Node5</title>
<path fill="none" stroke="midnightblue" d="M207.82,-437.52C229.31,-449.76 268.53,-471.09 304,-485 309.94,-487.33 316.28,-489.51 322.6,-491.51"/>
<polygon fill="midnightblue" stroke="midnightblue" points="321.87,-494.94 332.45,-494.48 323.89,-488.24 321.87,-494.94"/>
</g>
<!-- Node6 -->
<g id="node6" class="node">
<title>Node6</title>
<g id="a_node6"><a xlink:href="namespacepreprocess.html#ae6efc31a5dbea814d20ed8efd321db06" target="_top" xlink:title="Find assignment call statements 获取赋值调用语句">
<polygon fill="white" stroke="black" points="328.5,-456.5 328.5,-475.5 414.5,-475.5 414.5,-456.5 328.5,-456.5"/>
<text text-anchor="middle" x="371.5" y="-463.5" font-family="Helvetica,sans-Serif" font-size="10.00">findAssignCall</text>
</a>
</g>
</g>
<!-- Node2&#45;&gt;Node6 -->
<g id="edge5" class="edge">
<title>Node2&#45;&gt;Node6</title>
<path fill="none" stroke="midnightblue" d="M224.33,-434.97C250.63,-440.55 288.01,-448.49 318.39,-454.94"/>
<polygon fill="midnightblue" stroke="midnightblue" points="317.89,-458.41 328.4,-457.06 319.34,-451.56 317.89,-458.41"/>
</g>
<!-- Node7 -->
<g id="node7" class="node">
<title>Node7</title>
<g id="a_node7"><a xlink:href="namespacepreprocess.html#a545a0bfd0673e4d835f285ed1dc4e0b6" target="_top" xlink:title="Resolve the source expression assigned to a receiver alias 还原调用者别名在当前作用域内的赋值来源表达式">
<polygon fill="white" stroke="black" points="307,-418.5 307,-437.5 436,-437.5 436,-418.5 307,-418.5"/>
<text text-anchor="middle" x="371.5" y="-425.5" font-family="Helvetica,sans-Serif" font-size="10.00">getAssignReceiverExpr</text>
</a>
</g>
</g>
<!-- Node2&#45;&gt;Node7 -->
<g id="edge6" class="edge">
<title>Node2&#45;&gt;Node7</title>
<path fill="none" stroke="midnightblue" d="M224.33,-428C244.56,-428 271.34,-428 296.45,-428"/>
<polygon fill="midnightblue" stroke="midnightblue" points="296.71,-431.5 306.71,-428 296.71,-424.5 296.71,-431.5"/>
</g>
<!-- Node8 -->
<g id="node8" class="node">
<title>Node8</title>
<g id="a_node8"><a xlink:href="namespacetool.html#a163a1af85c967f70b1495290735321aa" target="_top" xlink:title="Get AST for code 将代码转化为Ast树">
<polygon fill="white" stroke="black" points="336.5,-266.5 336.5,-285.5 406.5,-285.5 406.5,-266.5 336.5,-266.5"/>
<text text-anchor="middle" x="371.5" y="-273.5" font-family="Helvetica,sans-Serif" font-size="10.00">tool.getAst</text>
</a>
</g>
</g>
<!-- Node2&#45;&gt;Node8 -->
<g id="edge7" class="edge">
<title>Node2&#45;&gt;Node8</title>
<path fill="none" stroke="midnightblue" d="M208.94,-418.42C225.84,-408.43 251.31,-391.37 268,-371 291.69,-342.09 275.49,-319.17 304,-295 310.52,-289.47 318.55,-285.55 326.75,-282.77"/>
<polygon fill="midnightblue" stroke="midnightblue" points="327.73,-286.13 336.37,-280 325.79,-279.4 327.73,-286.13"/>
</g>
<!-- Node9 -->
<g id="node9" class="node">
<title>Node9</title>
<g id="a_node9"><a xlink:href="namespacegetCall.html#a6671b2b1a28dcf2b92aaf39b9696fae3" target="_top" xlink:title="Extract all API calls from a given .py file 每次传进来一个.py文件，抽取所有的调用API.">
<polygon fill="white" stroke="black" points="306.5,-684.5 306.5,-703.5 436.5,-703.5 436.5,-684.5 306.5,-684.5"/>
<text text-anchor="middle" x="371.5" y="-691.5" font-family="Helvetica,sans-Serif" font-size="10.00">getCall.getCallFunction</text>
</a>
</g>
</g>
<!-- Node2&#45;&gt;Node9 -->
<g id="edge8" class="edge">
<title>Node2&#45;&gt;Node9</title>
<path fill="none" stroke="midnightblue" d="M195.47,-437.58C208.33,-467.95 251.03,-564.06 304,-632 317.5,-649.32 335.97,-666.13 350.02,-677.86"/>
<polygon fill="midnightblue" stroke="midnightblue" points="348.15,-680.86 358.11,-684.47 352.58,-675.43 348.15,-680.86"/>
</g>
<!-- Node15 -->
<g id="node15" class="node">
<title>Node15</title>
<g id="a_node15"><a xlink:href="namespacegetCall.html#ad822ec04ad5a7e5ed8e64b816a20e314" target="_top" xlink:title="Restore the conventional API call path in the withitem (including AsyncWith) call form 还原withitemAPI调...">
<polygon fill="white" stroke="black" points="481,-608.5 481,-627.5 621,-627.5 621,-608.5 481,-608.5"/>
<text text-anchor="middle" x="551" y="-615.5" font-family="Helvetica,sans-Serif" font-size="10.00">getCall.modifyWithName</text>
</a>
</g>
</g>
<!-- Node2&#45;&gt;Node15 -->
<g id="edge20" class="edge">
<title>Node2&#45;&gt;Node15</title>
<path fill="none" stroke="midnightblue" d="M194.44,-437.6C204.22,-467.7 238.81,-560.54 304,-599 356.57,-630.02 426.84,-632.39 478.81,-628.4"/>
<polygon fill="midnightblue" stroke="midnightblue" points="479.29,-631.87 488.95,-627.52 478.69,-624.89 479.29,-631.87"/>
</g>
<!-- Node16 -->
<g id="node16" class="node">
<title>Node16</title>
<g id="a_node16"><a xlink:href="namespacepreprocess.html#af850a797dfc86cb1fb0b3c68ee1840f7" target="_top" xlink:title="Get decorator block start index 获取装饰器块起始行号">
<polygon fill="white" stroke="black" points="304,-304.5 304,-323.5 439,-323.5 439,-304.5 304,-304.5"/>
<text text-anchor="middle" x="371.5" y="-311.5" font-family="Helvetica,sans-Serif" font-size="10.00">getDecoratorInsertIndex</text>
</a>
</g>
</g>
<!-- Node2&#45;&gt;Node16 -->
<g id="edge15" class="edge">
<title>Node2&#45;&gt;Node16</title>
<path fill="none" stroke="midnightblue" d="M205.36,-418.32C220.94,-407.29 246.82,-388.53 268,-371 284.72,-357.16 285.43,-349.24 304,-338 310.87,-333.84 318.56,-330.25 326.22,-327.19"/>
<polygon fill="midnightblue" stroke="midnightblue" points="327.68,-330.38 335.83,-323.61 325.24,-323.82 327.68,-330.38"/>
</g>
<!-- Node17 -->
<g id="node17" class="node">
<title>Node17</title>
<g id="a_node17"><a xlink:href="namespacepreprocess.html#a638e9a6cb8c8f3b7752dc458a3846d9d" target="_top" xlink:title="Determine the instrumentation line for import statements 确定import语句插桩行">
<polygon fill="white" stroke="black" points="329,-228.5 329,-247.5 414,-247.5 414,-228.5 329,-228.5"/>
<text text-anchor="middle" x="371.5" y="-235.5" font-family="Helvetica,sans-Serif" font-size="10.00">getImportLine</text>
</a>
</g>
</g>
<!-- Node2&#45;&gt;Node17 -->
<g id="edge17" class="edge">
<title>Node2&#45;&gt;Node17</title>
<path fill="none" stroke="midnightblue" d="M210.54,-418.34C227.89,-408.62 253.03,-392.06 268,-371 298.79,-327.7 265.91,-294.05 304,-257 308.36,-252.76 313.59,-249.46 319.18,-246.88"/>
<polygon fill="midnightblue" stroke="midnightblue" points="320.74,-250.03 328.84,-243.2 318.25,-243.49 320.74,-250.03"/>
</g>
<!-- Node18 -->
<g id="node18" class="node">
<title>Node18</title>
<g id="a_node18"><a xlink:href="namespacetool.html#a79b523c932db90445596767f644be48c" target="_top" xlink:title="Split parameter string into list of separated parameters 将参数字符串拆分成单个的参数">
<polygon fill="white" stroke="black" points="319.5,-380.5 319.5,-399.5 423.5,-399.5 423.5,-380.5 319.5,-380.5"/>
<text text-anchor="middle" x="371.5" y="-387.5" font-family="Helvetica,sans-Serif" font-size="10.00">tool.getParameter</text>
</a>
</g>
</g>
<!-- Node2&#45;&gt;Node18 -->
<g id="edge18" class="edge">
<title>Node2&#45;&gt;Node18</title>
<path fill="none" stroke="midnightblue" d="M224.33,-421.03C249.9,-415.6 285.96,-407.95 315.86,-401.6"/>
<polygon fill="midnightblue" stroke="midnightblue" points="316.69,-405 325.74,-399.5 315.23,-398.15 316.69,-405"/>
</g>
<!-- Node19 -->
<g id="node19" class="node">
<title>Node19</title>
<g id="a_node19"><a xlink:href="namespacepreprocess.html#aa4a5e25d5835c88d23f7e5881063ad0d" target="_top" xlink:title="Resolve the visible base&#45;class expression for an inherited self receiver 还原继承场景中self调用者可见的基类表达式">
<polygon fill="white" stroke="black" points="313.5,-570.5 313.5,-589.5 429.5,-589.5 429.5,-570.5 313.5,-570.5"/>
<text text-anchor="middle" x="371.5" y="-577.5" font-family="Helvetica,sans-Serif" font-size="10.00">getSelfReceiverExpr</text>
</a>
</g>
</g>
<!-- Node2&#45;&gt;Node19 -->
<g id="edge19" class="edge">
<title>Node2&#45;&gt;Node19</title>
<path fill="none" stroke="midnightblue" d="M196.92,-437.73C211.11,-462.31 251.92,-527.36 304,-561 307.16,-563.04 310.55,-564.87 314.05,-566.5"/>
<polygon fill="midnightblue" stroke="midnightblue" points="312.96,-569.84 323.54,-570.39 315.61,-563.36 312.96,-569.84"/>
</g>
<!-- Node10 -->
<g id="node10" class="node">
<title>Node10</title>
<g id="a_node10"><a xlink:href="namespacegetCall.html#a3686a0013578a483d50cde8c495798ab" target="_top" xlink:title="Extract method calls in a custom class inherited from a lib class 获取从库API继承的自定义类中的库API方法调用">
<polygon fill="white" stroke="black" points="499,-722.5 499,-741.5 603,-741.5 603,-722.5 499,-722.5"/>
<text text-anchor="middle" x="551" y="-729.5" font-family="Helvetica,sans-Serif" font-size="10.00">getCall.getSelfAPI</text>
</a>
</g>
</g>
<!-- Node9&#45;&gt;Node10 -->
<g id="edge9" class="edge">
<title>Node9&#45;&gt;Node10</title>
<path fill="none" stroke="midnightblue" d="M417.29,-703.59C441.03,-708.67 470.38,-714.96 495.44,-720.32"/>
<polygon fill="midnightblue" stroke="midnightblue" points="495.02,-723.81 505.53,-722.48 496.49,-716.96 495.02,-723.81"/>
</g>
<!-- Node11 -->
<g id="node11" class="node">
<title>Node11</title>
<g id="a_node11"><a xlink:href="namespacecallsite.html#a7f3d1db0a0e705c0b7df71a802144e5f" target="_top" xlink:title="Make callsite record 构造调用点记录">
<polygon fill="white" stroke="black" points="475,-684.5 475,-703.5 627,-703.5 627,-684.5 475,-684.5"/>
<text text-anchor="middle" x="551" y="-691.5" font-family="Helvetica,sans-Serif" font-size="10.00">callsite.makeCallsiteRecord</text>
</a>
</g>
</g>
<!-- Node9&#45;&gt;Node11 -->
<g id="edge10" class="edge">
<title>Node9&#45;&gt;Node11</title>
<path fill="none" stroke="midnightblue" d="M436.58,-694C445.7,-694 455.19,-694 464.63,-694"/>
<polygon fill="midnightblue" stroke="midnightblue" points="464.84,-697.5 474.84,-694 464.84,-690.5 464.84,-697.5"/>
</g>
<!-- Node14 -->
<g id="node14" class="node">
<title>Node14</title>
<g id="a_node14"><a xlink:href="namespacegetCall.html#af3f5b1dd17766d8a46358385b8ed528b" target="_top" xlink:title="Restore the conventional API call path by modifying the first name of the API prefix 通过修改API赋值调用前缀还原完...">
<polygon fill="white" stroke="black" points="482,-646.5 482,-665.5 620,-665.5 620,-646.5 482,-646.5"/>
<text text-anchor="middle" x="551" y="-653.5" font-family="Helvetica,sans-Serif" font-size="10.00">getCall.modifyFirstName</text>
</a>
</g>
</g>
<!-- Node9&#45;&gt;Node14 -->
<g id="edge13" class="edge">
<title>Node9&#45;&gt;Node14</title>
<path fill="none" stroke="midnightblue" d="M417.29,-684.41C441.03,-679.33 470.38,-673.04 495.44,-667.68"/>
<polygon fill="midnightblue" stroke="midnightblue" points="496.49,-671.04 505.53,-665.52 495.02,-664.19 496.49,-671.04"/>
</g>
<!-- Node9&#45;&gt;Node15 -->
<g id="edge14" class="edge">
<title>Node9&#45;&gt;Node15</title>
<path fill="none" stroke="midnightblue" d="M407.17,-684.39C417.79,-680.69 429.23,-675.91 439,-670 457.57,-658.76 455.9,-647.31 475,-637 479.28,-634.69 483.85,-632.65 488.54,-630.86"/>
<polygon fill="midnightblue" stroke="midnightblue" points="489.98,-634.06 498.3,-627.5 487.7,-627.45 489.98,-634.06"/>
</g>
<!-- Node12 -->
<g id="node12" class="node">
<title>Node12</title>
<g id="a_node12"><a xlink:href="namespacecallsite.html#a10129000122ceacaec2cb26cd4e3a8a5" target="_top" xlink:title="Normalize call text for identity generation 归一化调用文本，用于生成调用点身份">
<polygon fill="white" stroke="black" points="663,-703.5 663,-722.5 806,-722.5 806,-703.5 663,-703.5"/>
<text text-anchor="middle" x="734.5" y="-710.5" font-family="Helvetica,sans-Serif" font-size="10.00">callsite.normalizeCallText</text>
</a>
</g>
</g>
<!-- Node11&#45;&gt;Node12 -->
<g id="edge11" class="edge">
<title>Node11&#45;&gt;Node12</title>
<path fill="none" stroke="midnightblue" d="M627.13,-701.87C635.61,-702.75 644.28,-703.66 652.83,-704.56"/>
<polygon fill="midnightblue" stroke="midnightblue" points="652.48,-708.04 662.79,-705.6 653.21,-701.08 652.48,-708.04"/>
</g>
<!-- Node13 -->
<g id="node13" class="node">
<title>Node13</title>
<g id="a_node13"><a xlink:href="namespacecallsite.html#a011e3f8ff9cf7205c116ce2eee657af4" target="_top" xlink:title="Normalize source file path to project relative path 将源码路径归一化为项目相对路径">
<polygon fill="white" stroke="black" points="664.5,-665.5 664.5,-684.5 804.5,-684.5 804.5,-665.5 664.5,-665.5"/>
<text text-anchor="middle" x="734.5" y="-672.5" font-family="Helvetica,sans-Serif" font-size="10.00">callsite.normalizeRelPath</text>
</a>
</g>
</g>
<!-- Node11&#45;&gt;Node13 -->
<g id="edge12" class="edge">
<title>Node11&#45;&gt;Node13</title>
<path fill="none" stroke="midnightblue" d="M627.13,-686.13C636.06,-685.2 645.2,-684.24 654.18,-683.3"/>
<polygon fill="midnightblue" stroke="midnightblue" points="654.66,-686.77 664.24,-682.25 653.93,-679.81 654.66,-686.77"/>
</g>
<!-- Node16&#45;&gt;Node3 -->
<g id="edge16" class="edge">
<title>Node16&#45;&gt;Node3</title>
<path fill="none" stroke="midnightblue" d="M417.29,-323.59C443.97,-329.3 477.75,-336.53 504.55,-342.27"/>
<polygon fill="midnightblue" stroke="midnightblue" points="503.94,-345.72 514.45,-344.39 505.4,-338.87 503.94,-345.72"/>
</g>
<!-- Node20&#45;&gt;Node3 -->
<g id="edge22" class="edge">
<title>Node20&#45;&gt;Node3</title>
<path fill="none" stroke="midnightblue" d="M238.24,-687.06C292.73,-676.73 382.48,-652.44 439,-599 508.11,-533.65 537.31,-417.32 546.52,-371.41"/>
<polygon fill="midnightblue" stroke="midnightblue" points="549.96,-372.03 548.4,-361.55 543.09,-370.72 549.96,-372.03"/>
</g>
<!-- Node20&#45;&gt;Node9 -->
<g id="edge23" class="edge">
<title>Node20&#45;&gt;Node9</title>
<path fill="none" stroke="midnightblue" d="M238.06,-694C255.79,-694 276.47,-694 296.14,-694"/>
<polygon fill="midnightblue" stroke="midnightblue" points="296.32,-697.5 306.32,-694 296.32,-690.5 296.32,-697.5"/>
</g>
<!-- Node21 -->
<g id="node21" class="node">
<title>Node21</title>
<g id="a_node21"><a xlink:href="namespacepreprocess.html#a45a426d44e2e19441f98e0def6cc2d67" target="_top" xlink:title="Get the local variable in the dictionary comprehension 获取字典推导式中的局部变量">
<polygon fill="white" stroke="black" points="337.5,-722.5 337.5,-741.5 405.5,-741.5 405.5,-722.5 337.5,-722.5"/>
<text text-anchor="middle" x="371.5" y="-729.5" font-family="Helvetica,sans-Serif" font-size="10.00">getDictVar</text>
</a>
</g>
</g>
<!-- Node20&#45;&gt;Node21 -->
<g id="edge24" class="edge">
<title>Node20&#45;&gt;Node21</title>
<path fill="none" stroke="midnightblue" d="M236.67,-703.59C264.5,-709.5 299.97,-717.03 327.4,-722.85"/>
<polygon fill="midnightblue" stroke="midnightblue" points="326.98,-726.34 337.49,-724.99 328.44,-719.49 326.98,-726.34"/>
</g>
<!-- Node22 -->
<g id="node22" class="node">
<title>Node22</title>
<g id="a_node22"><a xlink:href="namespacepreprocess.html#a863e16849c87ef82b42e6a44e743a245" target="_top" xlink:title="Get the local variable in the list comprehension 获取列表推导式中的局部变量">
<polygon fill="white" stroke="black" points="339,-760.5 339,-779.5 404,-779.5 404,-760.5 339,-760.5"/>
<text text-anchor="middle" x="371.5" y="-767.5" font-family="Helvetica,sans-Serif" font-size="10.00">getListVar</text>
</a>
</g>
</g>
<!-- Node20&#45;&gt;Node22 -->
<g id="edge25" class="edge">
<title>Node20&#45;&gt;Node22</title>
<path fill="none" stroke="midnightblue" d="M207.82,-703.52C229.31,-715.76 268.53,-737.09 304,-751 312.03,-754.15 320.8,-757.03 329.25,-759.54"/>
<polygon fill="midnightblue" stroke="midnightblue" points="328.39,-762.93 338.97,-762.31 330.31,-756.2 328.39,-762.93"/>
</g>
<!-- Node24&#45;&gt;Node8 -->
<g id="edge28" class="edge">
<title>Node24&#45;&gt;Node8</title>
<path fill="none" stroke="midnightblue" d="M236.67,-304.41C264.13,-298.58 299.04,-291.17 326.31,-285.38"/>
<polygon fill="midnightblue" stroke="midnightblue" points="327.31,-288.75 336.36,-283.25 325.86,-281.9 327.31,-288.75"/>
</g>
<!-- Node28&#45;&gt;Node17 -->
<g id="edge33" class="edge">
<title>Node28&#45;&gt;Node17</title>
<path fill="none" stroke="midnightblue" d="M233.92,-266.99C259.31,-261.6 291.78,-254.71 318.68,-249"/>
<polygon fill="midnightblue" stroke="midnightblue" points="319.64,-252.38 328.69,-246.88 318.18,-245.53 319.64,-252.38"/>
</g>
<!-- Node30&#45;&gt;Node8 -->
<g id="edge36" class="edge">
<title>Node30&#45;&gt;Node8</title>
<path fill="none" stroke="midnightblue" d="M218.04,-349.18C233.44,-346.65 252.75,-341.89 268,-333 288.1,-321.28 284.11,-307.07 304,-295 310.86,-290.84 318.66,-287.56 326.46,-284.98"/>
<polygon fill="midnightblue" stroke="midnightblue" points="327.66,-288.27 336.25,-282.07 325.67,-281.56 327.66,-288.27"/>
</g>
<!-- Node31&#45;&gt;Node9 -->
<g id="edge39" class="edge">
<title>Node31&#45;&gt;Node9</title>
<path fill="none" stroke="midnightblue" d="M207.82,-760.48C229.31,-748.24 268.53,-726.91 304,-713 309.94,-710.67 316.28,-708.49 322.6,-706.49"/>
<polygon fill="midnightblue" stroke="midnightblue" points="323.89,-709.76 332.45,-703.52 321.87,-703.06 323.89,-709.76"/>
</g>
<!-- Node32 -->
<g id="node32" class="node">
<title>Node32</title>
<g id="a_node32"><a xlink:href="namespacepreprocess.html#ae7e0fb3e9686a37af31d748a4c234ebf" target="_top" xlink:title="Extract decorator API calls 抽取项目中第三方库装饰器调用">
<polygon fill="white" stroke="black" points="322,-798.5 322,-817.5 421,-817.5 421,-798.5 322,-798.5"/>
<text text-anchor="middle" x="371.5" y="-805.5" font-family="Helvetica,sans-Serif" font-size="10.00">extractDecorator</text>
</a>
</g>
</g>
<!-- Node31&#45;&gt;Node32 -->
<g id="edge38" class="edge">
<title>Node31&#45;&gt;Node32</title>
<path fill="none" stroke="midnightblue" d="M232.57,-778.72C257.19,-783.94 288.8,-790.66 315.55,-796.34"/>
<polygon fill="midnightblue" stroke="midnightblue" points="315.04,-799.8 325.54,-798.46 316.49,-792.96 315.04,-799.8"/>
</g>
<!-- Node33 -->
<g id="node33" class="node">
<title>Node33</title>
<g id="a_node33"><a xlink:href="namespacepreprocess.html#aba37de1d85915cdded208175b9ff6b26" target="_top" xlink:title="Save assignment statement with constant values 保存常量赋值语句">
<polygon fill="white" stroke="black" points="313.5,-836.5 313.5,-855.5 429.5,-855.5 429.5,-836.5 313.5,-836.5"/>
<text text-anchor="middle" x="371.5" y="-843.5" font-family="Helvetica,sans-Serif" font-size="10.00">saveConstantAssign</text>
</a>
</g>
</g>
<!-- Node31&#45;&gt;Node33 -->
<g id="edge40" class="edge">
<title>Node31&#45;&gt;Node33</title>
<path fill="none" stroke="midnightblue" d="M207.82,-779.52C229.31,-791.76 268.53,-813.09 304,-827 309.94,-829.33 316.28,-831.51 322.6,-833.51"/>
<polygon fill="midnightblue" stroke="midnightblue" points="321.87,-836.94 332.45,-836.48 323.89,-830.24 321.87,-836.94"/>
</g>
</g>
</svg>
